<svg width="106" height="96" viewBox="0 0 106 96" fill="none" xmlns="http://www.w3.org/2000/svg">
<mask id="mask0_8_1208" style="mask-type:luminance" maskUnits="userSpaceOnUse" x="0" y="0" width="106" height="96">
<path d="M106 0H0V96H106V0Z" fill="white"/>
</mask>
<g mask="url(#mask0_8_1208)">
<mask id="mask1_8_1208" style="mask-type:luminance" maskUnits="userSpaceOnUse" x="0" y="0" width="106" height="96">
<path d="M106 0H0V96H106V0Z" fill="white"/>
</mask>
<g mask="url(#mask1_8_1208)">
<mask id="mask2_8_1208" style="mask-type:alpha" maskUnits="userSpaceOnUse" x="-1" y="10" width="107" height="76">
<path d="M67.5878 10C68.8444 10 70.0414 10.4847 70.8793 11.3328L104.469 45.3328C105.969 46.8514 105.969 49.1486 104.469 50.6672L70.8793 84.6672C70.0414 85.5153 68.8444 86 67.5878 86H4.35746C0.539733 86 -1.47967 81.9095 1.06597 79.3328L32.0209 48L1.06597 16.6672C-1.47967 14.0905 0.539733 10 4.35746 10H67.5878Z" fill="white"/>
</mask>
<g mask="url(#mask2_8_1208)">
<path d="M69.5626 10L32.0209 48L-5.52075 10H69.5626Z" fill="url(#paint0_linear_8_1208)"/>
<g filter="url(#filter0_f_8_1208)">
<path d="M69.5626 10.3999L-5.52075 86.3999H69.5626L107.104 48.3999L69.5626 10.3999Z" fill="black" fill-opacity="0.24"/>
</g>
<g filter="url(#filter1_f_8_1208)">
<path d="M69.5626 12L-5.52075 88H69.5626L107.104 50L69.5626 12Z" fill="black" fill-opacity="0.32"/>
</g>
<path d="M-5.52075 86L69.5626 10L107.104 48L69.5626 86H-5.52075Z" fill="url(#paint1_linear_8_1208)"/>
<path d="M-5.52075 86L69.5626 10L88.3334 29L32.0209 86H-5.52075Z" fill="url(#paint2_linear_8_1208)"/>
</g>
</g>
</g>
<defs>
<filter id="filter0_f_8_1208" x="-6.32075" y="9.5999" width="114.225" height="77.6" filterUnits="userSpaceOnUse" color-interpolation-filters="sRGB">
<feFlood flood-opacity="0" result="BackgroundImageFix"/>
<feBlend mode="normal" in="SourceGraphic" in2="BackgroundImageFix" result="shape"/>
<feGaussianBlur stdDeviation="0.4" result="effect1_foregroundBlur_8_1208"/>
</filter>
<filter id="filter1_f_8_1208" x="-13.5208" y="4" width="128.625" height="92" filterUnits="userSpaceOnUse" color-interpolation-filters="sRGB">
<feFlood flood-opacity="0" result="BackgroundImageFix"/>
<feBlend mode="normal" in="SourceGraphic" in2="BackgroundImageFix" result="shape"/>
<feGaussianBlur stdDeviation="4" result="effect1_foregroundBlur_8_1208"/>
</filter>
<linearGradient id="paint0_linear_8_1208" x1="47.4792" y1="55" x2="34.5956" y2="9.27456" gradientUnits="userSpaceOnUse">
<stop stop-color="#0D36A5"/>
<stop offset="1" stop-color="#1152D4"/>
</linearGradient>
<linearGradient id="paint1_linear_8_1208" x1="50.7917" y1="10" x2="50.7917" y2="86" gradientUnits="userSpaceOnUse">
<stop stop-color="#84CAFF"/>
<stop offset="1" stop-color="#61B1FB"/>
</linearGradient>
<linearGradient id="paint2_linear_8_1208" x1="41.4063" y1="10" x2="41.4063" y2="86" gradientUnits="userSpaceOnUse">
<stop stop-color="#3B90F5"/>
<stop offset="1" stop-color="#2A78EE"/>
</linearGradient>
</defs>
</svg>
