<svg width="42" height="56" viewBox="0 0 42 56" fill="none" xmlns="http://www.w3.org/2000/svg">
<path d="M5.83386 13.874C11.7215 14.4666 16.101 14.763 20.4781 14.763L18.3644 7.94028C18.1581 7.35467 17.7268 6.87157 17.1627 6.59426C16.5986 6.31695 15.9465 6.26743 15.3457 6.45628L6.73873 8.68228C5.38023 8.97862 4.62498 10.4626 5.22823 11.648L5.68186 13.7246L5.83386 13.874ZM35.576 13.874V9.12329C35.728 7.64162 34.0679 6.60328 32.5574 7.49228L23.8007 13.1296C23.5045 13.2798 23.2438 13.4895 23.0355 13.7452C22.8272 14.0009 22.6761 14.2968 22.5919 14.6136C26.2161 14.6136 30.142 14.3173 35.576 13.874ZM25.3089 9.12329C25.9416 9.01428 26.5448 8.77842 27.0807 8.4304C27.6166 8.08238 28.0739 7.62965 28.4239 7.10043C28.774 6.57121 29.0094 5.97684 29.1154 5.35434C29.2214 4.73184 29.1958 4.09457 29.0402 3.48221C28.8846 2.86986 28.6023 2.29555 28.2109 1.79507C27.8195 1.29459 27.3273 0.878666 26.7652 0.573209C26.203 0.267753 25.5828 0.0793109 24.9433 0.0196242C24.3037 -0.0400625 23.6585 0.0302852 23.0479 0.226284C22.4173 0.337876 21.8169 0.575497 21.2837 0.92442C20.7505 1.27334 20.2959 1.72613 19.9481 2.25473C19.6003 2.78333 19.3667 3.37647 19.2618 3.99739C19.1569 4.61831 19.1829 5.25379 19.3382 5.86444C19.4935 6.47508 19.7748 7.04789 20.1646 7.54735C20.5545 8.04681 21.0446 8.46229 21.6046 8.76804C22.1646 9.07379 22.7826 9.26329 23.4201 9.3248C24.0577 9.38631 24.7014 9.31851 25.3112 9.12562M37.5425 15.2086V15.3556H37.2409C29.9947 16.0976 25.1616 16.394 20.6325 16.394C15.8017 16.394 11.1206 16.0976 3.72248 15.3556H3.57048C2.06236 15.3556 1.15511 16.247 1.30711 17.7286C3.72248 31.822 3.72011 40.572 0.0958588 53.1813C-0.355391 54.516 0.851109 56 2.36161 56H38.901C40.2595 56 41.4684 54.663 41.0147 53.3283C37.5079 41.7604 37.0916 29.5004 39.8059 17.7286C40.1075 16.394 39.0506 15.2086 37.5425 15.2086ZM13.0824 23.6623C14.1392 23.6623 14.8921 24.4043 14.8921 25.1463V25.2933C14.8921 26.1846 14.1392 26.9266 13.0824 26.9266C12.8705 26.9277 12.6608 26.8849 12.4669 26.8012C12.273 26.7175 12.0992 26.5946 11.9567 26.4406C11.8143 26.2865 11.7064 26.1048 11.6401 25.9071C11.5738 25.7095 11.5505 25.5003 11.5719 25.2933C11.5509 25.0864 11.5744 24.8775 11.6409 24.6801C11.7073 24.4828 11.8153 24.3013 11.9577 24.1476C12.1001 23.9938 12.2738 23.8711 12.4675 23.7875C12.6613 23.7039 12.8708 23.6613 13.0824 23.6623ZM27.8762 23.6623C28.7811 23.6623 29.6884 24.4043 29.6884 25.2956C29.6884 26.1823 28.7811 26.929 27.8762 26.929C27.6495 26.9335 27.4246 26.8879 27.2183 26.7954C27.0119 26.7029 26.8295 26.566 26.6844 26.3947C26.5393 26.2235 26.4353 26.0223 26.3801 25.8062C26.325 25.5901 26.32 25.3645 26.3657 25.1463C26.3657 24.7527 26.5249 24.3752 26.8081 24.0969C27.0914 23.8186 27.4756 23.6623 27.8762 23.6623ZM12.1704 29.743C12.9256 29.743 13.3816 30.338 13.3816 30.933C13.3817 31.8412 13.5664 32.7403 13.9249 33.5776C14.2833 34.4148 14.8083 35.1733 15.4691 35.8085C16.1298 36.4438 16.913 36.943 17.7728 37.277C18.6325 37.6109 19.5515 37.7729 20.4757 37.7533C25.9097 37.7533 27.7242 33.1566 27.7242 30.9306C27.7242 30.338 28.1755 29.743 28.7787 29.743C29.382 29.743 29.9876 30.338 29.9876 30.933C29.9876 33.8963 27.7219 39.8323 20.4757 39.8323C13.3792 39.8323 11.1159 33.8986 11.1159 30.9306C11.1159 30.338 11.5671 29.743 12.1704 29.743Z" fill="white"/>
</svg>
