<svg width="106" height="106" viewBox="0 0 106 106" fill="none" xmlns="http://www.w3.org/2000/svg">
<path fill-rule="evenodd" clip-rule="evenodd" d="M95.3371 14.5915H61.7814V6.68457L6.625 15.1977V89.8184L61.7814 99.3186V87.599H95.3371C96.3538 87.6523 97.3501 87.2999 98.1071 86.6192C98.8642 85.9385 99.3202 84.9851 99.375 83.9685V18.2187C99.3194 17.2027 98.863 16.2502 98.106 15.5702C97.349 14.8902 96.3532 14.5382 95.3371 14.5915ZM95.8671 84.5714H61.6688L61.6125 78.3141H69.8507V71.0266H61.5496L61.5098 66.7203H69.8507V59.4328H61.4469L61.4071 55.1266H69.8507V47.8391H61.3806V43.5328H69.8507V36.2453H61.3806V31.9391H69.8507V24.6516H61.3806V18.0266H95.8671V84.5714Z" fill="#20744A"/>
<path d="M74.4882 24.6416H88.8081V31.9291H74.4882V24.6416ZM74.4882 36.2387H88.8081V43.5262H74.4882V36.2387ZM74.4882 47.8357H88.8081V55.1232H74.4882V47.8357ZM74.4882 59.4328H88.8081V66.7203H74.4882V59.4328ZM74.4882 71.0299H88.8081V78.3173H74.4882V71.0299Z" fill="#20744A"/>
<path fill-rule="evenodd" clip-rule="evenodd" d="M21.0244 35.3544L28.133 34.947L32.6016 47.233L37.8817 34.4402L44.9904 34.0327L36.358 51.4763L44.9904 68.963L37.4743 68.4562L32.3995 55.1267L27.3215 67.9494L20.4149 67.3399L28.4378 51.8937L21.0244 35.3544Z" fill="white"/>
</svg>
