<svg width="62" height="62" viewBox="0 0 62 62" fill="none" xmlns="http://www.w3.org/2000/svg">
<path d="M31 5.16666C27.6075 5.16666 24.2483 5.83486 21.114 7.1331C17.9798 8.43135 15.1319 10.3342 12.7331 12.7331C7.88838 17.5778 5.16667 24.1486 5.16667 31C5.16667 42.4183 12.5808 52.1058 22.8367 55.5417C24.1283 55.7483 24.5417 54.9475 24.5417 54.25V49.8842C17.3858 51.4342 15.8617 46.4225 15.8617 46.4225C14.6733 43.4258 12.9942 42.625 12.9942 42.625C10.6433 41.0233 13.175 41.075 13.175 41.075C15.7583 41.2558 17.1275 43.7358 17.1275 43.7358C19.375 47.6625 23.1725 46.5 24.645 45.88C24.8775 44.2008 25.5492 43.0642 26.2725 42.4183C20.5375 41.7725 14.5183 39.5508 14.5183 29.7083C14.5183 26.8408 15.5 24.5417 17.1792 22.7075C16.9208 22.0617 16.0167 19.375 17.4375 15.8875C17.4375 15.8875 19.6075 15.19 24.5417 18.5225C26.5825 17.9542 28.8042 17.67 31 17.67C33.1958 17.67 35.4175 17.9542 37.4583 18.5225C42.3925 15.19 44.5625 15.8875 44.5625 15.8875C45.9833 19.375 45.0792 22.0617 44.8208 22.7075C46.5 24.5417 47.4817 26.8408 47.4817 29.7083C47.4817 39.5767 41.4367 41.7467 35.6758 42.3925C36.6058 43.1933 37.4583 44.7692 37.4583 47.1717V54.25C37.4583 54.9475 37.8717 55.7742 39.1892 55.5417C49.445 52.08 56.8333 42.4183 56.8333 31C56.8333 27.6075 56.1651 24.2482 54.8669 21.114C53.5686 17.9798 51.6658 15.1319 49.2669 12.7331C46.8681 10.3342 44.0202 8.43135 40.886 7.1331C37.7517 5.83486 34.3925 5.16666 31 5.16666Z" fill="white"/>
</svg>
