<svg width="62" height="62" viewBox="0 0 62 62" fill="none" xmlns="http://www.w3.org/2000/svg">
<path d="M41.3333 7.75C44.759 7.75 48.0444 9.11086 50.4668 11.5332C52.8891 13.9555 54.25 17.241 54.25 20.6667V41.3333C54.25 44.759 52.8891 48.0444 50.4668 50.4668C48.0444 52.8891 44.759 54.25 41.3333 54.25H20.6667C17.241 54.25 13.9555 52.8891 11.5332 50.4668C9.11086 48.0444 7.75 44.759 7.75 41.3333V20.6667C7.75 17.241 9.11086 13.9555 11.5332 11.5332C13.9555 9.11086 17.241 7.75 20.6667 7.75H41.3333ZM31 20.6667C28.2594 20.6667 25.6311 21.7554 23.6932 23.6932C21.7554 25.6311 20.6667 28.2594 20.6667 31C20.6667 33.7406 21.7554 36.3689 23.6932 38.3068C25.6311 40.2446 28.2594 41.3333 31 41.3333C33.7406 41.3333 36.3689 40.2446 38.3068 38.3068C40.2446 36.3689 41.3333 33.7406 41.3333 31C41.3333 28.2594 40.2446 25.6311 38.3068 23.6932C36.3689 21.7554 33.7406 20.6667 31 20.6667ZM31 25.8333C32.3703 25.8333 33.6844 26.3777 34.6534 27.3466C35.6223 28.3156 36.1667 29.6297 36.1667 31C36.1667 32.3703 35.6223 33.6844 34.6534 34.6534C33.6844 35.6223 32.3703 36.1667 31 36.1667C29.6297 36.1667 28.3156 35.6223 27.3466 34.6534C26.3777 33.6844 25.8333 32.3703 25.8333 31C25.8333 29.6297 26.3777 28.3156 27.3466 27.3466C28.3156 26.3777 29.6297 25.8333 31 25.8333ZM42.625 16.7917C41.9399 16.7917 41.2828 17.0638 40.7983 17.5483C40.3138 18.0328 40.0417 18.6899 40.0417 19.375C40.0417 20.0601 40.3138 20.7172 40.7983 21.2017C41.2828 21.6862 41.9399 21.9583 42.625 21.9583C43.3101 21.9583 43.9672 21.6862 44.4517 21.2017C44.9362 20.7172 45.2083 20.0601 45.2083 19.375C45.2083 18.6899 44.9362 18.0328 44.4517 17.5483C43.9672 17.0638 43.3101 16.7917 42.625 16.7917Z" fill="white"/>
</svg>
