<svg width="151" height="151" viewBox="0 0 151 151" fill="none" xmlns="http://www.w3.org/2000/svg">
<g clip-path="url(#clip0_8_1058)">
<path d="M103.215 34.6103C102.491 34.6103 102.001 34.6984 101.491 34.8179V34.8997H101.579C101.919 35.5541 102.498 36.0322 102.925 36.6174C103.265 37.2906 103.555 37.9638 103.894 38.6307L103.982 38.5363C104.574 38.1211 104.863 37.4541 104.863 36.4412C104.612 36.1455 104.574 35.8498 104.36 35.5604C104.108 35.1388 103.567 34.9312 103.227 34.5977L103.215 34.6103ZM36.3029 117.623H30.4705C30.3054 108.354 29.7386 99.0962 28.7718 89.8763H28.7215L19.8502 117.623H15.4146L6.60625 89.8763H6.54333C5.85477 99.1106 5.44562 108.364 5.31646 117.623H0C0.348139 105.249 1.208 93.6513 2.57958 82.8296H9.815L18.2144 108.399H18.2647L26.7396 82.8296H33.629C35.1515 95.5136 36.0491 107.111 36.3218 117.623H36.3029ZM61.5765 91.9526C59.1983 104.825 56.0692 114.179 52.1894 120.013C49.1568 124.518 45.8369 126.769 42.2297 126.764C41.2733 126.764 40.0863 126.475 38.6686 125.896V122.788C39.3649 122.897 40.1744 122.952 41.0972 122.952C42.7833 122.952 44.1402 122.486 45.1679 121.555C46.4052 120.422 47.0239 119.154 47.0239 117.748C47.0239 116.771 46.5416 114.791 45.5768 111.809L39.1971 91.9526H44.9225L49.4965 106.801C50.5326 110.173 50.9625 112.528 50.7863 113.866C53.303 107.164 55.0542 99.8591 56.0399 91.9526H61.5765ZM139.121 117.623H122.574V82.8296H128.142V113.344H139.121V117.623ZM118.233 118.472L111.841 115.326C112.411 114.852 112.946 114.328 113.445 113.753C116.167 110.565 117.526 105.84 117.522 99.5781C117.522 88.0643 113.003 82.3053 103.964 82.3011C99.5342 82.3011 96.0737 83.7629 93.5822 86.6864C90.8726 89.8826 89.5178 94.5909 89.5178 100.811C89.5136 106.931 90.7174 111.419 93.1292 114.275C95.3271 116.855 98.647 118.145 103.089 118.145C104.75 118.145 106.27 117.939 107.65 117.528L115.987 122.385L118.252 118.472H118.233ZM97.5208 110.658C96.1073 108.388 95.4005 104.748 95.4005 99.7354C95.4005 90.969 98.064 86.5858 103.391 86.5858C106.184 86.5858 108.233 87.6344 109.538 89.7316C110.947 92.0092 111.652 95.6227 111.652 100.572C111.652 109.41 108.988 113.831 103.661 113.835C100.864 113.835 98.8127 112.786 97.5082 110.689L97.5208 110.658ZM87.0892 107.984C87.0892 110.945 86.0071 113.369 83.8428 115.257C81.6868 117.144 78.7842 118.088 75.1351 118.088C71.7187 118.088 68.4408 117.006 65.2383 114.848L66.7294 111.853C69.481 113.233 71.9767 113.921 74.2165 113.917C76.3053 113.917 77.9475 113.455 79.1429 112.533C79.7419 112.084 80.2254 111.499 80.5536 110.826C80.8818 110.153 81.0452 109.412 81.0304 108.663C81.0304 106.587 79.5833 104.825 76.9534 103.347C74.5122 102.007 69.6362 99.2131 69.6362 99.2131C66.9811 97.2816 65.6598 95.2116 65.6598 91.8079C65.6598 88.9808 66.6455 86.7053 68.6169 84.9814C70.5925 83.2365 73.1511 82.3662 76.2927 82.3703C79.5183 82.3703 82.4544 83.2302 85.1011 84.9499L83.761 87.9448C81.6509 87.0129 79.3732 86.5205 77.0666 86.4977C75.284 86.4977 73.9124 86.9297 72.9519 87.7938C72.4682 88.1972 72.0781 88.7011 71.8087 89.2704C71.5392 89.8397 71.3969 90.4608 71.3915 91.0906C71.3915 93.1543 72.8638 94.9285 75.5818 96.4385C78.0544 97.7912 83.05 100.654 83.05 100.654C85.7743 102.573 87.127 104.618 87.127 108.003L87.0892 107.984ZM146.118 71.1649C142.752 71.0768 140.141 71.4166 137.957 72.3477C137.328 72.5994 136.322 72.5994 136.233 73.3984C136.579 73.7319 136.63 74.2793 136.926 74.7449C137.429 75.5879 138.297 76.7141 139.102 77.3056C139.975 78.006 140.87 78.6562 141.789 79.256C143.425 80.2626 145.281 80.8603 146.885 81.8733C147.798 82.4647 148.729 83.2134 149.654 83.8426C150.113 84.1572 150.409 84.7234 151 84.9248V84.7989C150.711 84.4214 150.622 83.8741 150.339 83.4525C149.918 83.031 149.496 82.6535 149.081 82.2382C147.847 80.6089 146.373 79.1768 144.708 77.9914C143.362 77.0728 140.417 75.7893 139.864 74.2478L139.782 74.1597C140.701 74.0779 141.795 73.7445 142.676 73.4928C144.104 73.1153 145.413 73.1971 146.892 72.8259C147.563 72.6497 148.234 72.4526 148.905 72.2345V71.857C148.15 71.102 147.584 70.0764 146.803 69.3718C144.624 67.4709 142.302 65.7398 139.857 64.1937C138.536 63.3506 136.863 62.8096 135.472 62.0923C134.969 61.8406 134.126 61.7148 133.836 61.2933C133.081 60.3747 132.641 59.1541 132.106 58.0594C130.872 55.662 129.724 53.2214 128.665 50.7421C127.91 49.0937 127.45 47.4516 126.525 45.9416C122.184 38.788 117.484 34.453 110.255 30.2124C108.701 29.3316 106.839 28.9541 104.869 28.4885C103.819 28.4382 102.768 28.3627 101.724 28.3186C101.032 28.0229 100.365 27.2239 99.7732 26.8401C97.3824 25.3301 91.1914 22.0584 89.4297 26.3871C88.2972 29.1177 91.1096 31.8105 92.0848 33.1947C92.8084 34.1573 93.7207 35.2584 94.224 36.3405C94.5197 37.0704 94.6015 37.8191 94.8972 38.5804C95.5641 40.4301 96.1996 42.4938 97.0804 44.224C97.5397 45.1048 98.043 46.0297 98.6345 46.8224C98.9742 47.2817 99.553 47.4956 99.6852 48.2506C99.0938 49.1063 99.056 50.3521 98.7162 51.3965C97.2062 56.1593 97.7977 62.0483 99.9368 65.5527C100.61 66.5971 102.214 68.9125 104.36 68.0254C106.247 67.2704 105.832 64.8795 106.373 62.7718C106.499 62.2685 106.417 61.935 106.675 61.5953V61.6896C107.267 62.8725 107.858 63.9987 108.399 65.1815C109.695 67.2452 111.96 69.3844 113.854 70.8126C114.861 71.5676 115.66 72.8762 116.918 73.3418V73.216H116.824C116.553 72.8511 116.194 72.6749 115.855 72.3792C115.058 71.5973 114.322 70.756 113.653 69.8625C111.885 67.4367 110.314 64.8742 108.953 62.1993C108.261 60.878 107.682 59.4561 107.128 58.1537C106.877 57.6504 106.877 56.8954 106.455 56.6437C105.826 57.5623 104.901 58.3614 104.442 59.4939C103.643 61.3059 103.561 63.5331 103.259 65.8484C103.089 65.8925 103.171 65.8484 103.089 65.9365C101.743 65.6094 101.283 64.2126 100.78 63.0424C99.5216 60.0538 99.314 55.2533 100.402 51.8117C100.698 50.9309 101.956 48.15 101.453 47.3069C101.189 46.5079 100.358 46.0486 99.8991 45.4005C99.309 44.5566 98.8033 43.6568 98.3891 42.714C97.3824 40.3609 96.8791 37.7561 95.7843 35.4031C95.281 34.3146 94.4002 33.1758 93.6829 32.1754C92.8839 31.0429 92.003 30.2439 91.3676 28.9038C91.16 28.4445 90.8643 27.6832 91.1977 27.1799C91.2858 26.8401 91.462 26.708 91.7891 26.6136C92.3428 26.1606 93.8968 26.752 94.4442 27.0037C95.9982 27.6329 97.3069 28.2243 98.6093 29.1051C99.2007 29.5204 99.8362 30.3194 100.591 30.527H101.472C102.818 30.8227 104.335 30.6151 105.593 30.9863C107.827 31.7036 109.84 32.748 111.646 33.8805C117.21 37.434 121.736 42.3961 124.764 48.2632C125.267 49.2321 125.487 50.1193 125.947 51.1259C126.827 53.2022 127.916 55.2973 128.809 57.3044C129.69 59.2862 130.539 61.3059 131.804 62.948C132.433 63.8288 134.963 64.2881 136.095 64.7474C136.932 65.1249 138.234 65.4709 138.989 65.9302C140.436 66.8111 141.846 67.8177 143.205 68.7866C143.897 69.2648 145.992 70.3155 146.118 71.1649Z" fill="white"/>
</g>
<defs>
<clipPath id="clip0_8_1058">
<rect width="151" height="151" fill="white"/>
</clipPath>
</defs>
</svg>
