<svg width="150" height="540" viewBox="0 0 150 540" fill="none" xmlns="http://www.w3.org/2000/svg">
<g filter="url(#filter0_d_20_4)">
<path d="M27.2722 103.032V0H70.4034C84.9111 0 97.2623 1.53988 107.457 4.61965C117.652 7.69942 125.82 11.8058 131.963 16.9387C138.237 22.0717 142.811 27.8112 145.687 34.1574C148.562 40.5036 150 46.8964 150 53.3359C150 60.9887 148.039 67.8948 144.118 74.0543C140.328 80.1205 135.1 85.3468 128.434 89.7331C121.769 94.0261 114.057 97.3392 105.3 99.6724C96.5435 101.912 87.2638 103.032 77.4612 103.032H27.2722ZM55.6996 83.4336H72.5599C79.7485 83.4336 86.2835 82.7803 92.165 81.4738C98.0465 80.0739 103.079 78.0674 107.261 75.4542C111.574 72.8411 114.842 69.5747 117.063 65.655C119.416 61.642 120.592 57.069 120.592 51.936C120.592 45.2165 119.024 39.757 115.887 35.5573C112.881 31.2643 109.091 27.9512 104.516 25.618C100.072 23.2849 95.4979 21.6983 90.7927 20.8584C86.0874 19.9251 82.1011 19.4585 78.8336 19.4585H55.6996V83.4336Z" fill="#233269"/>
<path d="M11 243.021L76.0889 135.93H77.6573L142.746 243.021H109.81L68.2468 167.707L88.8322 157.628L39.0353 243.021H11ZM55.5035 205.784H98.8307L108.829 222.863H46.6812L55.5035 205.784Z" fill="#233269"/>
<path d="M49.0339 279.979L91.1848 354.173L74.7165 351.793L112.946 279.979H146.667L80.7941 387.77L14.921 279.979H49.0339Z" fill="#233269"/>
<path d="M27.2722 419.968H125.69V439.566H55.6996V461.545H117.652V481.143H55.6996V503.401H128.434V523H27.2722V419.968Z" fill="#233269"/>
</g>
<defs>
<filter id="filter0_d_20_4" x="0" y="0" width="150" height="540" filterUnits="userSpaceOnUse" color-interpolation-filters="sRGB">
<feFlood flood-opacity="0" result="BackgroundImageFix"/>
<feColorMatrix in="SourceAlpha" type="matrix" values="0 0 0 0 0 0 0 0 0 0 0 0 0 0 0 0 0 0 127 0" result="hardAlpha"/>
<feOffset dx="-7" dy="13"/>
<feGaussianBlur stdDeviation="2"/>
<feComposite in2="hardAlpha" operator="out"/>
<feColorMatrix type="matrix" values="0 0 0 0 0 0 0 0 0 0 0 0 0 0 0 0 0 0 0.25 0"/>
<feBlend mode="normal" in2="BackgroundImageFix" result="effect1_dropShadow_20_4"/>
<feBlend mode="normal" in="SourceGraphic" in2="effect1_dropShadow_20_4" result="shape"/>
</filter>
</defs>
</svg>
