<svg width="106" height="106" viewBox="0 0 106 106" fill="none" xmlns="http://www.w3.org/2000/svg">
<path d="M21.1503 35.292C20.9019 35.292 20.6518 35.3748 20.4033 35.4576C20.9002 35.7889 21.1495 36.2038 21.3151 36.6186V36.9507C21.3151 37.7805 21.0667 37.8625 20.901 38.3602C20.6518 38.9407 20.7354 39.6885 21.0675 40.1862C21.0675 40.269 21.1503 40.3518 21.1503 40.3518C20.8191 38.0289 22.7262 37.6149 23.1411 36.9507C23.1411 36.2874 22.6443 35.8733 22.2294 35.6241C21.8145 35.3756 21.4816 35.292 21.1503 35.292ZM24.0529 35.9545V36.4539C24.0529 36.5367 24.0529 36.6186 23.9701 36.7015C23.9701 36.7843 23.8873 36.8679 23.8873 36.9507C23.8873 37.0335 23.8036 37.1163 23.8036 37.1992L23.7208 37.2828C23.7208 37.2828 23.7208 37.3656 23.638 37.3656C23.5552 37.4484 23.556 37.5312 23.4724 37.5312L23.3067 37.6977L23.1411 37.8633C22.9755 38.0289 22.7254 38.1118 22.5598 38.2774C22.477 38.3602 22.3942 38.3602 22.3942 38.443L22.2285 38.6095L22.0629 38.7751L21.8973 38.9415C21.8145 39.0243 21.8128 39.1072 21.73 39.1072C21.73 39.19 21.6472 39.2728 21.6472 39.3564C21.6472 39.4401 21.5644 39.5221 21.5644 39.6049C21.5644 39.6877 21.4816 39.7705 21.4816 39.8533V40.6831C21.4816 40.7659 21.4816 40.8487 21.5644 40.9315C21.5644 41.0143 21.6472 41.0971 21.6472 41.18C21.6472 41.2628 21.73 41.2628 21.73 41.3456L19.5736 40.5166C19.2423 40.4338 18.8283 40.351 18.497 40.2682C18.3314 40.1854 18.0813 40.1854 17.9148 40.1017C17.3351 40.0189 16.7538 39.9361 16.2561 39.8533H16.1733C15.5936 39.7705 15.0951 39.7705 14.5145 39.7705C14.1005 39.7705 13.6856 39.7705 13.2707 39.8533C12.6902 39.8533 12.1097 39.9361 11.612 40.0189C11.4463 40.0189 11.3635 40.1017 11.1971 40.1017C10.9486 40.1846 10.6166 40.1854 10.3681 40.269C10.2025 40.269 10.1189 40.3518 9.95323 40.3518C9.78761 40.4346 9.7048 40.4338 9.53834 40.5166C9.45553 40.5994 9.37272 40.6003 9.20627 40.6831H9.12345C9.04064 40.7659 8.95783 40.7659 8.87419 40.8487H8.79138C8.70856 40.9315 8.62658 40.9324 8.54294 41.0152C8.46012 41.0152 8.37731 41.098 8.37731 41.098C8.37731 41.098 8.2945 41.098 8.2945 41.1808C8.21169 41.2636 8.12805 41.2636 8.04441 41.3464C7.96077 41.4292 7.87961 41.4292 7.7968 41.512C7.71398 41.5948 7.63034 41.5949 7.63034 41.6777C7.54753 41.6777 7.54753 41.7621 7.46472 41.8449C7.38191 41.8449 7.38191 41.9278 7.29909 41.9278H7.21545C7.13264 41.9278 7.13264 42.0106 7.04983 42.0106L6.8842 42.1754L6.71858 42.3418C6.63577 42.1762 6.63577 42.1762 6.55295 42.259C6.55295 42.259 6.47014 42.259 6.47014 42.3418L6.30369 42.5074V42.5903L6.05525 42.8387C5.88962 43.0051 5.72234 43.1716 5.55672 43.2544C5.39109 43.42 5.22547 43.5028 5.05984 43.6685C4.89339 43.8341 4.72859 43.9177 4.47933 44.0014C4.3137 44.0842 4.14642 44.1662 3.89798 44.249C3.73236 44.3318 3.48392 44.4146 3.3183 44.4983C2.90341 44.5811 2.48769 44.7475 2.15644 44.7475H1.908C1.82519 44.7475 1.74238 44.7475 1.65956 44.8303C1.65956 44.9131 1.57675 44.9131 1.49394 44.9131C1.41113 44.9131 1.32748 44.996 1.24384 44.996C1.16103 45.0788 1.07822 45.0788 1.07822 45.1624C0.995406 45.2452 0.912594 45.2452 0.912594 45.328C0.829781 45.4109 0.746969 45.41 0.746969 45.4937L0.579687 45.6593C0.496875 45.7421 0.496875 45.8249 0.414062 45.9077C0.33125 45.9905 0.332078 46.0734 0.249266 46.157C0.249266 46.2398 0.165625 46.3234 0.165625 46.4063C0.165625 46.4891 0.0828125 46.5719 0.0828125 46.6547C0.0828125 46.7375 0.0828125 46.8203 0 46.9031V47.5665C0 47.6493 0 47.6501 0.0828125 47.7337C0.0828125 47.8166 0.165625 47.8157 0.165625 47.8985C0.165625 47.9814 0.249266 47.9822 0.249266 48.0658L0.414891 48.2306L0.580516 48.3962C0.828953 48.5619 0.829781 48.6447 1.16186 48.8103C1.24467 48.8103 1.24384 48.8948 1.32748 48.8948V48.9776C1.32748 49.0604 1.32666 49.1424 1.40947 49.226C1.40947 49.3088 1.49394 49.3916 1.49394 49.4745C1.49394 49.5573 1.57675 49.5573 1.57675 49.6401V49.7246C1.57675 49.8074 1.65956 49.8902 1.65956 49.8902C1.74238 49.973 1.74155 50.055 1.82436 50.055L1.99081 50.2214L2.15644 50.3871L2.32289 50.5535C2.4057 50.6363 2.48852 50.6363 2.48852 50.6363C2.57133 50.6363 2.65414 50.7191 2.73695 50.7191H3.0682V51.8802C3.31664 52.1286 3.73236 51.5481 4.14725 50.8839C4.06444 51.5481 4.06444 52.2942 4.14725 52.4607C4.23006 52.7091 4.81058 51.963 5.30828 51.134C11.8612 49.6409 17.9157 54.1202 18.497 60.5896C18.4142 59.5941 17.1687 59.0128 16.5882 59.1784C16.3397 59.8418 15.8412 60.7543 15.0951 61.2521C15.1779 60.6715 15.0951 60.0082 15.0122 59.4277C14.8304 60.2888 14.4304 61.0887 13.8504 61.7506C13.4232 61.7897 12.9932 61.7187 12.6013 61.5443C12.2094 61.3698 11.8688 61.0979 11.612 60.7544L11.5292 60.6715C11.5292 60.5887 11.4463 60.5059 11.4463 60.5059C11.4463 60.4231 11.3627 60.3403 11.3627 60.3403V60.0074C11.3627 59.9246 11.3635 59.8418 11.4463 59.8418C11.4463 59.7589 11.4463 59.677 11.5292 59.677C11.5292 59.5942 11.612 59.5105 11.612 59.5105C11.7776 59.0964 11.7776 58.6824 11.4463 58.5159C11.3635 58.5159 11.3627 58.4331 11.2799 58.4331H11.1143C11.0315 58.4331 10.9478 58.4315 10.9478 58.3486H10.118C10.0352 58.3486 9.95241 58.3503 9.95241 58.4331C9.86959 58.4331 9.87042 58.5159 9.78761 58.5159C9.7048 58.5159 9.70397 58.5987 9.62116 58.5987C7.21545 59.8426 8.54294 63.1601 9.95241 64.0726C9.37272 64.1555 8.7922 64.3211 8.70856 64.4039C9.12345 64.6523 9.53834 64.818 9.95323 64.9836C10.5329 65.15 11.1979 65.3157 11.4463 65.3993C12.1933 65.5649 13.0214 65.6486 13.7684 65.5658C17.9148 65.3173 21.2331 62.1655 21.8973 58.0182C21.8973 58.101 21.8973 58.1839 21.9801 58.2667C21.9801 58.4323 22.0629 58.5979 22.0629 58.7635V61.3357C22.0629 61.4185 22.0629 61.5013 21.9801 61.5841C21.9801 61.6669 21.9801 61.7498 21.8973 61.8334C21.8973 61.9162 21.8973 61.999 21.8145 62.0818C21.8145 62.1646 21.73 62.2475 21.73 62.3303C21.73 62.4131 21.6472 62.4976 21.6472 62.5804C21.6472 62.6632 21.5644 62.7452 21.5644 62.8288C21.5644 62.9124 21.4816 62.9944 21.4816 63.0772C21.4816 63.1601 21.3996 63.2429 21.3996 63.3257C21.3996 63.4085 21.3151 63.4913 21.3151 63.5741V63.6569C20.7354 64.9016 19.8228 65.9806 18.7446 66.8096C18.6618 66.8924 18.579 66.8924 18.4962 66.9752C18.4962 66.9752 18.4125 66.9752 18.4125 67.058C18.3297 67.1409 18.2469 67.1417 18.2469 67.2245V67.3073C18.4125 67.3073 18.4953 67.3073 18.6618 67.2245C18.9102 67.2245 19.1595 67.1409 19.4088 67.058C19.4916 67.058 19.5744 67.058 19.5744 66.9752H19.9056C19.9885 66.9752 19.9885 66.9752 20.0713 66.8924C20.9839 66.644 21.8973 66.3955 22.7262 65.9806C21.2331 67.9715 19.2423 69.6294 17.0031 70.7076C18.0813 70.6248 19.1603 70.4591 20.1557 70.1279C23.8881 69.0497 27.0391 66.4775 28.9471 63.1601C28.5378 65.3005 27.6906 67.3333 26.4586 69.1308C27.3712 68.5511 28.2001 67.887 28.9471 67.058C31.0207 64.9016 32.3466 62.1638 32.8443 59.1784C33.1766 60.6718 33.26 62.1649 33.0944 63.6578C39.5637 54.6999 33.4248 44.996 30.8535 42.4246V42.7567C30.8535 43.0051 30.7706 43.1708 30.7706 43.3364C30.6878 43.502 30.6887 43.7521 30.605 43.9186C30.5222 44.0842 30.4394 44.3326 30.3566 44.4983C30.2738 44.6639 30.191 44.9123 30.1081 45.0779C30.0253 45.2436 29.8597 45.4117 29.7769 45.5773C29.6941 45.7429 29.5276 45.9086 29.362 46.0742C29.1964 46.2398 29.1136 46.4054 28.9471 46.5711L28.6978 46.8211C28.615 46.904 28.5322 46.904 28.4494 46.9868C28.2838 47.1524 28.1165 47.2352 27.9509 47.318C27.7852 47.4008 27.6196 47.5681 27.3712 47.6509C27.2056 47.7337 26.9571 47.8157 26.7915 47.8985C26.625 47.9814 26.375 48.0658 26.2093 48.0658C26.0437 48.1486 25.7953 48.1478 25.6296 48.2306C25.3812 48.2306 25.2139 48.3134 24.9655 48.3134H23.8881C23.6397 48.3134 23.4724 48.2306 23.2239 48.2306C22.9755 48.2306 22.8099 48.1478 22.6442 48.065C22.8099 48.065 23.0583 48.0642 23.2239 47.9813C23.4724 47.9813 23.638 47.8985 23.8036 47.8157C23.9692 47.7329 24.2193 47.7329 24.385 47.6501C24.5506 47.5673 24.799 47.4845 24.9647 47.4017C25.1303 47.3189 25.2976 47.2352 25.5468 47.0696C25.7125 46.9868 25.8781 46.8203 26.0437 46.7375C26.2093 46.5719 26.375 46.4882 26.5406 46.3226L26.9563 45.9077C27.1219 45.7421 27.2047 45.5765 27.3704 45.4108C27.3704 45.4108 27.3704 45.328 27.4532 45.328C27.536 45.1624 27.6196 44.996 27.7024 44.9131C27.7852 44.7475 27.8681 44.5819 27.9509 44.3335C28.0337 44.1678 28.1165 43.9177 28.2001 43.7513C28.2838 43.5848 28.283 43.3372 28.3658 43.1716C28.3658 42.9232 28.4494 42.7559 28.4494 42.5903V41.5129C28.4494 41.2644 28.3658 41.0971 28.3658 40.9315C28.3658 40.6831 28.283 40.5175 28.2001 40.3518C28.1173 40.1854 28.0345 39.9378 28.0345 39.7713C27.9517 39.6057 27.8689 39.3556 27.7861 39.19C27.7033 39.0244 27.6196 38.8587 27.4532 38.6103C27.3704 38.4438 27.2047 38.279 27.1219 38.1126C26.9555 37.947 26.8727 37.7797 26.7062 37.6132L26.4586 37.3656C26.0445 37.0344 25.6296 36.7031 25.1319 36.4539C25.0491 36.4539 25.0483 36.3694 24.9655 36.3694C24.6334 36.2038 24.385 36.0373 24.0529 35.9545ZM101.438 44.249C99.9456 47.4008 96.6264 48.4807 96.6264 48.4807V49.1432C96.6264 49.5573 96.9594 49.5573 96.9594 49.5573H98.6181C98.6181 49.5573 98.4525 55.9438 98.5353 58.1839C98.6181 60.4239 100.194 61.0864 100.194 61.0864C100.194 61.0864 101.271 61.6669 103.013 61.5013C104.755 61.3357 106 59.5933 106 59.5933L105.419 58.6807C102.847 60.8372 102.35 58.2667 102.35 58.2667V49.4736H105.834V47.8157H102.515V44.249H101.438ZM51.2585 46.2398C50.0146 48.4791 46.447 48.8948 46.447 48.8948V49.8065C48.7699 50.3042 48.5207 51.3833 48.5207 51.3833C48.5207 51.3833 48.6035 56.9392 48.6035 58.6807C48.6035 60.4223 48.0238 60.0919 48.0238 60.0919L46.447 60.4231V61.4185C48.1058 60.9216 53.9946 61.4185 53.9946 61.4185L54.0774 60.4223C52.3358 60.1738 52.1702 59.0956 52.1702 59.0956V50.8839C53.7461 49.4745 55.2384 48.9776 55.2384 48.9776C58.3075 48.2306 58.5567 51.216 58.5567 51.216L58.6395 58.7635C59.2192 60.7544 56.3175 60.4223 56.3175 60.4223L56.4003 61.4185L60.9624 61.0873L64.0306 61.4185V60.4223C62.5375 60.1738 62.4547 60.1738 62.3719 59.0128C62.7031 50.4699 62.0406 49.7246 62.0406 49.7246C58.3083 43.6693 52.1702 49.7246 52.1702 49.7246V46.2398H51.2585ZM73.1541 46.7367C66.5183 46.7367 66.1879 52.7099 66.1879 52.7099C66.1879 52.7099 65.0252 61.7506 73.1541 61.7506C78.3795 61.7506 79.9563 58.7635 79.9563 58.7635L78.9601 57.8518C78.9601 57.8518 71.1633 63.4913 70.1687 52.7919H80.0383C79.9555 52.7091 79.789 46.7367 73.1541 46.7367ZM88.168 46.9901C87.6214 46.9934 87.0161 47.0174 86.342 47.0696C86.342 47.0696 83.4394 47.7321 82.9417 50.4699C82.444 53.2076 84.1855 54.7008 84.1855 54.7008C84.1855 54.7008 84.9325 55.779 87.5038 56.0274C89.7431 56.2759 90.7385 57.1893 90.7385 57.1893C90.7385 57.1893 91.9003 58.2658 90.6557 59.5933C89.4118 60.92 87.7531 60.4223 87.7531 60.4223C87.7531 60.4223 85.8451 60.5051 83.6058 56.6071L82.5268 56.6899L82.9409 60.5896C82.9409 60.5896 88.2508 63.5749 92.3152 60.5896C96.4617 56.8572 92.9777 53.3724 90.7385 52.9576C88.4992 52.5427 87.0061 51.9638 87.0061 51.9638C87.0061 51.9638 83.5222 50.5535 86.5921 48.4799C89.9923 46.7383 91.9832 51.7137 91.9832 51.7137C91.9832 51.7137 92.7285 51.8802 93.227 51.4653C93.3926 50.9684 92.8121 47.9813 92.8121 47.9813C92.8121 47.9813 91.9865 46.9661 88.168 46.9901ZM73.3205 47.9813C74.8965 47.9813 76.2239 49.308 76.2239 50.8839V51.6309H70.0859V51.2168C70.0859 49.4745 71.4962 47.9813 73.3205 47.9813Z" fill="#DF234F"/>
</svg>
