<svg width="106" height="106" viewBox="0 0 106 106" fill="none" xmlns="http://www.w3.org/2000/svg">
<g clip-path="url(#clip0_8_1097)">
<path d="M81.1562 0H24.8438C11.1229 0 0 11.1229 0 24.8438V81.1562C0 94.8771 11.1229 106 24.8438 106H81.1562C94.8771 106 106 94.8771 106 81.1562V24.8438C106 11.1229 94.8771 0 81.1562 0Z" fill="#242938"/>
<path d="M50.2883 11.6161C50.1103 11.6322 49.5434 11.689 49.0333 11.7291C37.2714 12.7895 26.2541 19.1363 19.2759 28.8908C15.3907 34.3146 12.9051 40.4667 11.9664 46.9836C11.6348 49.2585 11.5942 49.9305 11.5942 53.0145C11.5942 56.0988 11.6348 56.7708 11.9668 59.0453C14.2168 74.5958 25.2831 87.6616 40.2912 92.5024C42.9789 93.3686 45.8119 93.9594 49.0337 94.3155C50.2887 94.453 55.7121 94.453 56.9671 94.3155C62.5284 93.7002 67.2396 92.3243 71.8862 89.9521C72.5984 89.5882 72.7363 89.4909 72.639 89.4101C72.5744 89.3613 69.5385 85.2894 65.896 80.3678L59.2743 71.4229L50.9765 59.1426C46.411 52.3913 42.6551 46.8702 42.6224 46.8702C42.5901 46.8623 42.5578 52.3184 42.5416 58.9807C42.5172 70.6457 42.5093 71.1152 42.3636 71.3901C42.1532 71.7868 41.9913 71.9487 41.651 72.1272C41.3922 72.2564 41.1653 72.2808 39.943 72.2808H38.5426L38.17 72.046C37.9392 71.9015 37.7518 71.6974 37.6275 71.4552L37.4578 71.0908L37.4743 54.8604L37.4983 38.6217L37.7493 38.3057C37.8789 38.136 38.1542 37.9173 38.3484 37.8122C38.6801 37.6503 38.8097 37.6341 40.21 37.6341C41.8617 37.6341 42.1367 37.6987 42.5661 38.1683C42.6874 38.2979 47.18 45.0653 52.5553 53.2169C57.9972 61.4679 63.4424 69.7168 68.8909 77.9634L75.448 87.8963L75.7801 87.6777C78.7183 85.7672 81.827 83.0472 84.2878 80.2138C89.5253 74.1991 92.9012 66.8653 94.0344 59.0453C94.3661 56.7708 94.4067 56.0988 94.4067 53.0145C94.4067 49.9301 94.3661 49.2585 94.0344 46.9836C91.784 31.4331 80.7178 18.3678 65.7097 13.527C63.0626 12.6686 60.2457 12.0778 57.0885 11.7217C56.3113 11.6405 50.9603 11.5519 50.2887 11.6165M67.2396 36.6627C67.628 36.8569 67.9439 37.2292 68.0574 37.6175C68.122 37.8283 68.1381 42.3292 68.122 52.472L68.0976 67.0272L65.5316 63.0927L62.9574 59.1587V48.5786C62.9574 41.7383 62.9897 37.8929 63.0381 37.7066C63.1677 37.2536 63.451 36.8975 63.8398 36.6867C64.1714 36.517 64.2932 36.5004 65.5639 36.5004C66.7622 36.5004 66.9726 36.517 67.2396 36.6627Z" fill="white"/>
</g>
<defs>
<clipPath id="clip0_8_1097">
<rect width="106" height="106" fill="white"/>
</clipPath>
</defs>
</svg>
