<svg width="149" height="149" viewBox="0 0 149 149" fill="none" xmlns="http://www.w3.org/2000/svg">
<path d="M100.095 88.5561C100.831 82.4308 100.611 81.5321 105.173 82.5239L106.331 82.6263C109.84 82.7858 114.43 82.0618 117.124 80.8092C122.928 78.1168 126.369 73.6188 120.647 74.8003C107.592 77.4928 106.694 73.074 106.694 73.074C120.48 52.6203 126.244 26.657 121.27 20.3013C107.704 2.96604 84.2199 11.1634 83.8265 11.3764L83.7007 11.4008C81.1212 10.8642 78.2355 10.5453 74.9924 10.4929C69.0848 10.3963 64.602 12.0422 61.2017 14.6206C61.2017 14.6206 19.3083 -2.63892 21.2569 36.3257C21.6713 44.615 33.1385 99.0478 46.8151 82.6065C51.8136 76.5953 56.6444 71.5119 56.6444 71.5119C59.0436 73.1055 61.9153 73.918 64.9279 73.6258L65.1607 73.4279C65.0885 74.1741 65.12 74.9039 65.255 75.7677C61.7314 79.7057 62.7674 80.3971 55.7225 81.8464C48.5961 83.3155 52.7832 85.9299 55.5153 86.6132C58.8305 87.4432 66.4959 88.6178 71.6771 81.3645L71.4711 82.1921C72.854 83.298 72.7597 90.1392 72.9553 95.0271C73.1508 99.915 73.4791 104.476 74.4755 107.167C75.472 109.856 76.6477 116.783 85.9055 114.8C93.6418 113.14 99.5564 110.754 100.095 88.5561Z" fill="black"/>
<path d="M82.8905 119.631C78.7954 119.631 76.1297 118.047 74.5093 116.518C72.0648 114.212 71.0951 111.24 70.5166 109.465L70.2663 108.723C69.0999 105.574 68.7053 101.042 68.4713 95.205C68.4368 94.2925 68.4077 93.3799 68.384 92.4671C68.3642 91.7675 68.3398 90.8898 68.3048 89.969C66.8293 90.672 65.2635 91.1672 63.6521 91.4404C60.7652 91.934 57.6618 91.7733 54.4257 90.9643C52.143 90.3939 49.7706 89.2112 48.4192 87.3836C44.4788 90.8351 40.7201 90.366 38.6725 89.6838C35.0604 88.479 31.8278 85.0951 28.7884 79.3353C26.6244 75.2343 24.5303 69.8889 22.5642 63.4505C19.1418 52.2371 16.9674 40.4265 16.7741 36.5502C16.1665 24.4125 19.4329 15.7333 26.4824 10.7546C37.605 2.89832 54.4548 7.51732 60.5976 9.61496C64.7242 7.12735 69.5795 5.91557 75.0669 6.00403C78.0143 6.05176 80.8197 6.31135 83.426 6.77464C86.1441 5.92022 91.5151 4.6933 97.6625 4.76896C108.989 4.90399 118.375 9.31812 124.804 17.5341C129.391 23.3963 127.124 35.7051 125.363 42.5218C122.887 52.1079 118.546 62.3062 113.214 71.1834C114.662 71.1939 116.759 71.0192 119.741 70.4046C125.624 69.1893 127.344 72.344 127.811 73.756C129.681 79.4215 121.55 83.7017 119.014 84.8786C115.764 86.3884 110.466 87.3068 106.126 87.1078L105.937 87.095L104.797 86.9949L104.684 87.9447L104.576 88.8748C104.285 100.124 102.677 107.248 99.3702 111.957C95.9048 116.891 91.0867 118.276 86.8437 119.185C85.5457 119.474 84.2204 119.623 82.8905 119.631ZM74.2742 78.6858C76.9177 80.8009 77.1494 84.7808 77.3554 92.2192C77.381 93.1469 77.4055 94.0258 77.4381 94.8464C77.5382 97.3306 77.7722 103.149 78.6825 105.607C78.8117 105.954 78.9269 106.308 79.048 106.68C80.063 109.791 80.5729 111.349 84.9626 110.409C88.6492 109.62 90.5431 108.911 92.0261 106.799C94.182 103.728 95.3879 97.5552 95.6091 88.4453L100.093 88.5547L95.6394 88.0204L95.7697 86.9087C96.1969 83.2442 96.5043 80.5948 98.9546 78.8441C100.92 77.4391 103.16 77.5752 104.945 77.8965C102.985 76.417 102.442 74.6779 102.298 73.9655L101.924 72.1239L102.974 70.5641C109.027 61.5822 114.02 50.5434 116.672 40.2775C119.396 29.7288 118.564 24.1262 117.734 23.0669C106.739 9.01546 87.6679 14.816 85.6773 15.476L85.3397 15.6576L83.6518 15.9731L82.7869 15.7938C80.4041 15.2991 77.757 15.0255 74.9179 14.979C70.4584 14.9045 66.8614 15.9579 63.9117 18.1964L61.8652 19.7481L59.4894 18.7691C54.4164 16.6948 39.5118 12.5239 31.6474 18.094C27.2821 21.1857 25.2939 27.2447 25.7362 36.102C25.8818 39.0262 27.87 50.0952 31.1456 60.8325C35.675 75.6697 39.7911 80.5972 41.5093 81.171C41.8085 81.2723 42.5872 80.667 43.3613 79.7381C48.3971 73.6815 53.186 68.6329 53.3874 68.4199L55.9844 65.6878L59.1239 67.7738C60.3892 68.6155 61.7849 69.0916 63.2191 69.1812L70.7075 62.7952L69.6226 73.8654C69.5981 74.1145 69.5865 74.4521 69.6843 75.0807L70.0102 77.1795L68.5982 78.7603L68.4352 78.943L72.549 80.8428L74.2742 78.6858Z" fill="black"/>
<path d="M120.65 74.8004C107.594 77.4929 106.697 73.0729 106.697 73.0729C120.482 52.6192 126.244 26.6548 121.271 20.3002C107.704 2.96495 84.2199 11.1634 83.8276 11.3765L83.7007 11.3986C81.1212 10.8643 78.2355 10.5453 74.9912 10.4929C69.0836 10.3963 64.602 12.0412 61.2017 14.6195C61.2017 14.6195 19.3071 -2.63884 21.2558 36.3258C21.6702 44.6151 33.1374 99.0478 46.8139 82.6066C51.8124 76.5954 56.6421 71.5119 56.6421 71.5119C59.0412 73.1055 61.913 73.9181 64.9244 73.6259L65.1584 73.428C65.0862 74.1741 65.1188 74.904 65.2515 75.7677C61.7291 79.7058 62.7628 80.3972 55.7202 81.8465C48.5926 83.3155 52.7798 85.93 55.5141 86.6133C58.8282 87.4433 66.4947 88.6178 71.6748 81.3646L71.4676 82.1922C72.8482 83.2981 73.8179 89.385 73.6549 94.9026C73.4919 100.42 73.3837 104.208 74.4721 107.167C75.5605 110.126 76.6442 116.784 85.9032 114.8C93.6395 113.141 97.6485 108.845 98.2073 101.679C98.6031 96.5835 99.4982 97.3367 99.5553 92.7805L100.275 90.6235C101.102 83.716 100.406 81.488 105.173 82.5251L106.331 82.6264C109.84 82.787 114.431 82.0618 117.126 80.8093C122.93 78.1157 126.372 73.6189 120.65 74.8004Z" fill="#336791"/>
<path d="M83.3585 116.865C75.6396 116.866 73.1951 110.753 72.194 108.254C70.7308 104.592 70.4141 90.3764 70.7401 78.7183C70.7618 78.3291 70.9345 77.9637 71.2215 77.6999C71.5084 77.436 71.887 77.2945 72.2767 77.3054C72.6663 77.3163 73.0364 77.4788 73.3081 77.7583C73.5798 78.0378 73.7318 78.4123 73.7317 78.8022C73.3557 92.2482 73.89 104.432 74.9726 107.142C76.664 111.37 79.2284 115.069 86.4817 113.516C93.3671 112.038 95.9455 109.427 97.0933 102.771C97.9756 97.6623 99.7171 83.129 99.9313 80.2607C99.9607 79.8651 100.146 79.4974 100.447 79.2385C100.747 78.9796 101.139 78.8507 101.534 78.8801C101.93 78.9096 102.298 79.0951 102.556 79.3957C102.815 79.6963 102.944 80.0874 102.915 80.4831C102.691 83.4677 100.957 97.9743 100.041 103.28C98.6846 111.143 95.1796 114.71 87.108 116.441C85.8764 116.713 84.6197 116.855 83.3585 116.865ZM41.5093 87.0123C40.8347 87.0124 40.1646 86.9019 39.5257 86.6852C34.5121 85.0124 29.7371 76.8477 25.3323 62.4156C21.9798 51.4292 19.8554 39.9632 19.6692 36.237C19.1162 25.1901 21.9624 17.3734 28.1261 13.0058C40.3208 4.36501 60.8362 12.5938 61.7035 12.9476C62.0674 13.1 62.3564 13.3899 62.5076 13.7543C62.6588 14.1187 62.6599 14.528 62.5107 14.8933C62.3615 15.2585 62.074 15.5499 61.7109 15.7042C61.3478 15.8585 60.9385 15.8631 60.572 15.7169V15.7181C60.3741 15.6366 40.7014 7.75592 29.85 15.4515C24.5792 19.1893 22.1591 26.1318 22.6561 36.0892C22.8133 39.2275 24.798 50.42 28.1936 61.5438C32.1258 74.4264 36.6016 82.5574 40.4721 83.8472C41.0786 84.0509 42.9271 84.6667 45.5719 81.4888C50.5448 75.5055 55.1137 70.7305 55.1591 70.6828C55.4373 70.4133 55.8092 70.262 56.1965 70.2609C56.5839 70.2598 56.9566 70.4089 57.2364 70.6769C57.5161 70.9449 57.6811 71.3109 57.6966 71.6979C57.7121 72.085 57.577 72.463 57.3196 72.7525C57.2742 72.7991 52.7751 77.5031 47.8721 83.4014C45.5498 86.1928 43.3229 87.0123 41.5093 87.0123ZM106.604 74.4067C106.332 74.4071 106.065 74.3334 105.832 74.1936C105.6 74.0539 105.409 73.8533 105.282 73.6134C105.154 73.3736 105.094 73.1035 105.109 72.8322C105.123 72.561 105.212 72.2988 105.364 72.0739C119.299 51.3955 124.19 26.4112 120.001 21.0588C114.728 14.3212 107.281 10.8011 97.8697 10.5997C90.9005 10.4484 85.3607 12.2283 84.4562 12.5391L84.2292 12.631C83.3189 12.9174 82.6205 12.418 82.3574 11.8348C82.2075 11.5007 82.1849 11.1233 82.2938 10.7736C82.4027 10.4239 82.6356 10.1261 82.9488 9.93621L83.3515 9.77092L83.3317 9.77674L83.3527 9.76975C84.8904 9.20751 90.514 7.51962 97.4809 7.59994C107.896 7.70936 116.498 11.7265 122.358 19.2138C125.131 22.7572 125.137 30.9208 122.376 41.6104C119.561 52.5083 114.264 64.2223 107.846 73.7466C107.709 73.9504 107.524 74.1173 107.307 74.2324C107.091 74.3476 106.849 74.4074 106.604 74.4067ZM107.315 83.9787C104.936 83.9787 102.803 83.6447 101.526 82.8787C100.213 82.093 99.9627 81.0232 99.9301 80.4563C99.5716 74.1657 103.043 73.0703 104.813 72.5709C104.567 72.1984 104.215 71.7596 103.853 71.3068C102.82 70.017 101.407 68.2499 100.318 65.6075C100.148 65.1954 99.6123 64.2351 98.993 63.1246C95.637 57.1075 88.655 44.5857 93.1401 38.1729C95.2168 35.2057 99.3492 34.0381 105.44 34.69C103.648 29.2317 95.1155 12.1561 74.8725 11.8243C68.7833 11.7219 63.7895 13.5949 60.0377 17.3827C51.6366 25.8676 51.9416 41.2192 51.9451 41.3717C51.9502 41.5681 51.9166 41.7635 51.8462 41.9469C51.7758 42.1303 51.67 42.298 51.5347 42.4404C51.3995 42.5829 51.2376 42.6973 51.0581 42.7772C50.8787 42.8571 50.6852 42.9008 50.4889 42.906C50.2925 42.9111 50.0971 42.8775 49.9137 42.8071C49.7303 42.7367 49.5626 42.6308 49.4202 42.4956C49.2777 42.3604 49.1633 42.1984 49.0834 42.019C49.0035 41.8395 48.9598 41.6461 48.9546 41.4497C48.936 40.7687 48.6217 24.6593 57.9121 15.2769C62.2599 10.8861 67.9824 8.7186 74.9214 8.83152C87.8751 9.04454 96.2109 15.6285 100.924 21.1159C106.06 27.0945 108.579 33.6901 108.786 35.8902C108.941 37.5268 107.767 37.8551 107.529 37.9028L106.99 37.9156C101.013 36.9588 97.1783 37.6223 95.5928 39.8887C92.1809 44.7638 98.7858 56.6081 101.606 61.6672C102.327 62.9569 102.846 63.8894 103.084 64.4656C104.01 66.7122 105.218 68.222 106.189 69.4349C107.043 70.5024 107.783 71.4267 108.048 72.5139C108.171 72.7292 109.914 75.3065 120.257 73.1716C122.849 72.6373 124.403 73.0948 124.878 74.5312C125.813 77.3587 120.569 80.6553 117.666 82.0045C115.061 83.214 110.908 83.9787 107.315 83.9787ZM102.914 80.2095C103.241 80.5413 104.882 81.1117 108.282 80.9661C111.304 80.8358 114.493 80.1781 116.406 79.2911C118.853 78.1549 120.485 76.8849 121.331 76.0177L120.861 76.1039C114.248 77.4693 109.571 77.2877 106.96 75.5626C106.784 75.4465 106.615 75.321 106.454 75.1866C106.171 75.2983 105.909 75.3717 105.722 75.424C104.241 75.8396 102.709 76.2692 102.914 80.2095ZM60.196 88.5663C58.5535 88.5663 56.8249 88.344 55.059 87.9005C53.2302 87.443 50.1455 86.0659 50.1932 83.8041C50.2456 81.2653 53.9368 80.504 55.3279 80.2177C60.3473 79.184 60.6744 78.7696 62.2436 76.7779C62.7011 76.197 63.2703 75.4741 64.0456 74.6069C65.198 73.3183 66.4575 72.6641 67.7892 72.6641C68.7158 72.6641 69.4771 72.9795 69.9788 73.1867C71.5805 73.8502 72.9169 75.4543 73.4663 77.375C73.9622 79.1071 73.7259 80.7741 72.8005 82.0685C69.7646 86.3208 65.4063 88.5663 60.196 88.5663ZM53.4246 83.9333C53.8763 84.2814 54.7796 84.747 55.7842 84.9996C57.3138 85.3814 58.7968 85.5758 60.196 85.5758C64.4588 85.5758 67.88 83.81 70.3664 80.3306C70.8844 79.6042 70.7296 78.6834 70.5911 78.198C70.3001 77.183 69.5783 76.2598 68.8345 75.9502C68.4306 75.7826 68.0965 75.6545 67.7892 75.6545C67.6239 75.6545 67.1222 75.6545 66.2759 76.6009C65.5612 77.3995 65.0478 78.0513 64.5927 78.6275C62.6394 81.1082 61.7442 81.9498 55.9309 83.1476C54.513 83.4409 53.7855 83.7366 53.4246 83.9333ZM64.9279 77.0328C64.5708 77.0322 64.2257 76.9041 63.9548 76.6714C63.6839 76.4387 63.5051 76.1169 63.4507 75.764C63.4124 75.5156 63.3875 75.2653 63.3762 75.0143C59.5651 74.9421 55.889 73.3078 53.0987 70.3953C49.5704 66.7134 47.964 61.6124 48.6927 56.4009C49.4843 50.7413 49.1886 45.7451 49.0291 43.0608C48.9895 42.5086 48.9651 41.9555 48.9558 41.402C48.9581 40.9294 48.9674 39.6734 53.1639 37.5466C54.6562 36.79 57.649 35.4699 60.9177 35.1312C66.3353 34.5724 69.9054 36.9844 70.9741 41.9247C73.8586 55.2648 71.2022 61.1654 69.2629 65.4736C68.9009 66.2745 68.5598 67.0335 68.2874 67.7668L68.0464 68.4152C67.0221 71.1624 66.1362 73.5359 66.4086 75.31C66.4685 75.7021 66.3703 76.102 66.1357 76.422C65.9012 76.7419 65.5493 76.9557 65.1572 77.0165L64.9279 77.0328ZM51.9568 41.8152L52.0161 42.8838C52.1814 45.6718 52.4887 50.8612 51.6553 56.8165C51.0546 61.1142 52.3677 65.3107 55.258 68.3268C57.5419 70.7108 60.5499 72.0261 63.6405 72.0261H63.7045C64.0514 70.5676 64.6253 69.0287 65.2434 67.3699L65.4832 66.7262C65.7916 65.8974 66.1525 65.0953 66.5343 64.2467C68.4015 60.098 70.7249 54.9342 68.0488 42.5567C67.5179 40.1064 66.2328 38.6874 64.1201 38.2194C59.7804 37.2603 53.3141 40.5243 51.9568 41.8152ZM60.9852 41.1808C60.9107 41.7093 61.9549 43.1213 63.3145 43.3099C64.673 43.4996 65.8359 42.3961 65.9092 41.8676C65.9825 41.3391 64.9396 40.7559 63.5788 40.5662C62.2203 40.3764 61.0574 40.6512 60.9852 41.1808ZM63.6277 43.8314L63.2458 43.8046C62.4019 43.687 61.5486 43.1551 60.9654 42.381C60.7606 42.1097 60.4253 41.5813 60.4917 41.111C60.5871 40.4207 61.4276 40.0086 62.7418 40.0086C63.0375 40.0086 63.3401 40.0299 63.6498 40.0726C64.3668 40.1727 65.0338 40.3799 65.5262 40.6547C66.3795 41.1319 66.4424 41.6627 66.4039 41.9386C66.298 42.6988 65.0851 43.8314 63.6277 43.8314ZM61.4811 41.2693C61.5242 41.5952 62.3309 42.672 63.3832 42.8175L63.6265 42.835C64.5973 42.835 65.3237 42.0702 65.4087 41.8199C65.319 41.6499 64.6951 41.2251 63.5101 41.0621C63.2551 41.0265 62.9981 41.0078 62.7406 41.0062C61.9817 41.005 61.5754 41.1762 61.4811 41.2693ZM102.364 40.1017C102.437 40.6314 101.396 42.0434 100.035 42.232C98.6752 42.4205 97.5123 41.3182 97.4378 40.7885C97.3657 40.26 98.4087 39.6768 99.7683 39.4883C101.128 39.2974 102.29 39.5744 102.364 40.1017ZM99.7217 42.502C98.4122 42.502 97.2842 41.4835 97.1911 40.8235C97.084 40.0307 98.3889 39.4277 99.7345 39.2415C100.032 39.1996 100.322 39.1786 100.606 39.1786C101.767 39.1786 102.535 39.5197 102.612 40.068C102.662 40.4242 102.39 40.9725 101.919 41.466C101.61 41.792 100.958 42.3565 100.071 42.4787L99.7217 42.502ZM100.605 39.6768C100.345 39.6768 100.077 39.6959 99.8021 39.7339C98.4494 39.9213 97.6451 40.4649 97.6835 40.7559C97.7289 41.0749 98.5914 42.0038 99.7206 42.0038L99.9988 41.984C100.737 41.8804 101.291 41.3997 101.555 41.1215C101.97 40.6849 102.135 40.2752 102.115 40.1343C102.091 39.9516 101.592 39.6768 100.605 39.6768ZM104.323 70.4698C104.052 70.4696 103.787 70.3959 103.554 70.2565C103.322 70.117 103.132 69.9171 103.004 69.6781C102.877 69.439 102.817 69.1698 102.83 68.8992C102.844 68.6286 102.93 68.3668 103.081 68.1417C106.266 63.3841 105.683 58.5312 105.119 53.84C104.879 51.8401 104.631 49.7739 104.696 47.7892C104.761 45.7486 105.019 44.0654 105.271 42.4357C105.568 40.5068 105.848 38.6827 105.732 36.5199C105.723 36.1312 105.866 35.7544 106.131 35.4693C106.395 35.1841 106.76 35.013 107.148 34.9922C107.536 34.9713 107.917 35.1023 108.211 35.3574C108.504 35.6126 108.687 35.9719 108.72 36.3593C108.853 38.8317 108.535 40.8945 108.228 42.8908C107.99 44.4309 107.744 46.0233 107.685 47.8847C107.628 49.6412 107.853 51.5072 108.09 53.4815C108.691 58.4718 109.369 64.128 105.568 69.8051C105.279 70.2358 104.805 70.4698 104.323 70.4698Z" fill="white"/>
<path d="M3.30011 120.113C4.97131 119.84 6.66242 119.709 8.35563 119.719C10.9573 119.719 12.8652 120.325 14.0758 121.414C15.1957 122.383 15.8615 123.866 15.8615 125.683C15.8615 127.529 15.3156 128.982 14.2865 130.041C12.8943 131.524 10.6244 132.281 8.05181 132.281C7.26491 132.281 6.53853 132.25 5.93438 132.099V140.272H3.30011V120.113ZM5.93438 129.949C6.50943 130.1 7.2358 130.161 8.11351 130.161C11.2902 130.161 13.2284 128.617 13.2284 125.803C13.2284 123.109 11.3217 121.808 8.41616 121.808C7.26607 121.808 6.38837 121.898 5.93438 122.02V129.949ZM31.8115 132.824C31.8115 138.242 28.0574 140.604 24.5163 140.604C20.5515 140.604 17.4947 137.698 17.4947 133.066C17.4947 128.163 20.7028 125.288 24.7584 125.288C28.9665 125.287 31.8115 128.345 31.8115 132.824ZM20.1895 132.976C20.1895 136.184 22.0357 138.605 24.6385 138.605C27.1809 138.605 29.0864 136.214 29.0864 132.915C29.0864 130.433 27.8467 127.286 24.6979 127.286C21.5491 127.286 20.1895 130.191 20.1895 132.976ZM34.8066 137.546C35.5935 138.06 36.9858 138.605 38.3174 138.605C40.2544 138.605 41.1624 137.637 41.1624 136.426C41.1624 135.155 40.4069 134.459 38.4385 133.732C35.8054 132.794 34.5645 131.341 34.5645 129.586C34.5645 127.225 36.4712 125.288 39.6189 125.288C41.1019 125.288 42.4045 125.712 43.2216 126.196L42.5558 128.133C41.6549 127.578 40.6175 127.285 39.5595 127.286C37.9857 127.286 37.108 128.194 37.108 129.283C37.108 130.494 37.9868 131.039 39.8936 131.765C42.4359 132.734 43.7373 134.005 43.7373 136.184C43.7373 138.756 41.7398 140.572 38.2592 140.572C36.6552 140.572 35.1721 140.179 34.1431 139.574L34.8066 137.546ZM50.3643 121.413V125.62H54.1766V127.648H50.3643V135.547C50.3643 137.363 50.8777 138.392 52.3619 138.392C52.8822 138.401 53.4013 138.34 53.9054 138.21L54.0265 140.208C53.5131 140.42 52.6948 140.571 51.6669 140.571C50.426 140.571 49.4261 140.178 48.7905 139.451C48.035 138.664 47.7615 137.363 47.7615 135.638V127.648H45.4916V125.62H47.7615V122.109L50.3643 121.413ZM69.6133 125.621C69.5516 126.68 69.4922 127.861 69.4922 129.646V138.151C69.4922 141.511 68.8264 143.569 67.4039 144.841C65.9814 146.173 63.9233 146.596 62.0771 146.596C60.3217 146.596 58.3847 146.173 57.2032 145.386L57.869 143.358C58.8375 143.963 60.3508 144.508 62.1668 144.508C64.8907 144.508 66.8882 143.086 66.8882 139.393V137.759H66.8277C66.0105 139.121 64.4367 140.21 62.1668 140.21C58.5349 140.21 55.932 137.123 55.932 133.066C55.932 128.103 59.1705 125.288 62.5299 125.288C65.0734 125.288 66.4656 126.62 67.1012 127.831H67.1617L67.2828 125.621H69.6133ZM66.8591 131.402C66.8591 130.948 66.8288 130.554 66.7078 130.191C66.2235 128.648 64.9221 127.377 62.9851 127.377C60.4416 127.377 58.6268 129.525 58.6268 132.915C58.6268 135.79 60.0796 138.181 62.9548 138.181C64.5892 138.181 66.0722 137.152 66.6472 135.457C66.7986 135.003 66.8603 134.489 66.8603 134.035L66.8591 131.402ZM73.7282 130.191C73.7282 128.466 73.698 126.983 73.6072 125.621H75.9388L76.0284 128.496H76.1495C76.8153 126.529 78.4194 125.288 80.2051 125.288C80.5077 125.288 80.7184 125.318 80.9605 125.379V127.891C80.6628 127.826 80.3585 127.796 80.0537 127.8C78.1773 127.8 76.8444 129.223 76.4824 131.22C76.4074 131.63 76.3669 132.045 76.3613 132.461V140.27H73.7282V130.191ZM84.8066 133.43C84.8671 137.031 87.1662 138.514 89.8295 138.514C91.7374 138.514 92.8864 138.181 93.8851 137.758L94.3391 139.664C93.4009 140.088 91.7968 140.572 89.4663 140.572C84.9568 140.572 82.2631 137.606 82.2631 133.188C82.2631 128.769 84.866 125.287 89.1334 125.287C93.9154 125.287 95.1866 129.494 95.1866 132.188C95.1866 132.732 95.126 133.156 95.0957 133.428L84.8066 133.43ZM92.6151 131.523C92.6442 129.828 91.9179 127.195 88.9227 127.195C86.2291 127.195 85.0487 129.677 84.8357 131.523H92.6151Z" fill="white"/>
<path d="M98.2131 137.061C99.6396 137.919 101.27 138.379 102.935 138.393C105.628 138.393 107.202 136.971 107.202 134.913C107.202 133.006 106.112 131.916 103.358 130.857C100.029 129.677 97.971 127.951 97.971 125.076C97.971 121.898 100.604 119.538 104.569 119.538C106.657 119.538 108.171 120.022 109.078 120.536L108.352 122.685C107.161 122.046 105.83 121.713 104.478 121.717C101.694 121.717 100.634 123.381 100.634 124.774C100.634 126.68 101.874 127.619 104.69 128.708C108.14 130.041 109.896 131.704 109.896 134.701C109.896 137.848 107.565 140.572 102.753 140.572C100.786 140.572 98.6368 139.997 97.5461 139.271L98.2131 137.061ZM130.325 143.266C127.694 142.575 125.089 141.788 122.516 140.905C122.093 140.754 121.669 140.602 121.276 140.602C116.433 140.421 112.287 136.85 112.287 130.282C112.287 123.745 116.282 119.538 121.79 119.538C127.329 119.538 130.931 123.835 130.931 129.858C130.931 135.094 128.51 138.454 125.12 139.634V139.755C127.148 140.27 129.358 140.754 131.083 141.056L130.325 143.266ZM128.146 129.979C128.146 125.893 126.028 121.685 121.699 121.685C117.25 121.685 115.071 125.801 115.101 130.221C115.071 134.549 117.462 138.454 121.578 138.454C125.786 138.454 128.146 134.64 128.146 129.979ZM134.349 119.871H136.983V138.06H145.7V140.27H134.349V119.871Z" fill="#336791"/>
</svg>
