<svg width="149" height="149" viewBox="0 0 149 149" fill="none" xmlns="http://www.w3.org/2000/svg">
<g clip-path="url(#clip0_8_1060)">
<path d="M0.349219 82.8812C-0.116406 82.0663 -0.116406 81.1351 0.349219 80.4366L17.1117 52.9648C18.043 51.4515 20.2547 51.5679 21.0695 53.1976L36.3188 86.6062C36.9008 87.8866 36.3187 89.2835 34.9219 89.6327L11.175 96.8499C10.1273 97.1991 9.19609 96.7335 8.61406 95.9187L0.349219 82.8812ZM13.1539 90.564C13.0375 91.146 13.6195 91.728 14.2016 91.4952L30.6148 86.6062C31.0805 86.4898 31.4297 85.9077 31.1969 85.4421L20.6039 60.8804C20.2547 60.182 19.207 60.2984 18.9742 61.1132L13.1539 90.564ZM80.3203 69.1452H85.093V86.3734H80.3203V69.1452ZM80.2039 64.7218C80.2039 63.1697 81.0188 62.3937 82.6484 62.3937C84.3557 62.3937 85.2094 63.1697 85.2094 64.7218C85.2094 65.4202 85.0154 65.9635 84.6273 66.3515C84.1617 66.8171 83.5021 67.0499 82.6484 67.0499C81.0188 67.0499 80.2039 66.2739 80.2039 64.7218ZM145.741 86.3734L144.809 84.0452H144.693C143.917 85.0541 143.141 85.7525 142.365 86.1405C141.511 86.5286 140.386 86.7226 138.989 86.7226C137.359 86.7226 136.079 86.257 135.148 85.3257C134.216 84.3169 133.751 82.9588 133.751 81.2515C133.751 79.389 134.372 78.0309 135.613 77.1773C136.933 76.3236 138.873 75.858 141.434 75.7804L144.344 75.664V74.8491C144.344 73.1419 143.451 72.2882 141.666 72.2882C140.347 72.2882 138.756 72.715 136.894 73.5687L135.38 70.3093C137.321 69.3004 139.493 68.796 141.899 68.796C144.227 68.796 146.012 69.3004 147.254 70.3093C148.418 71.3182 149 72.8314 149 74.8491V86.3734H145.741ZM144.344 78.3413L142.598 78.4577C141.201 78.4577 140.192 78.6905 139.571 79.1562C138.873 79.6218 138.523 80.3202 138.523 81.2515C138.523 82.5708 139.299 83.2304 140.852 83.2304C141.938 83.2304 142.792 82.92 143.412 82.2991C144.033 81.6783 144.344 80.8635 144.344 79.8546V78.3413ZM120.131 86.257H115.359V76.246C115.359 75.0044 115.165 74.0731 114.777 73.4523C114.389 72.8314 113.729 72.521 112.798 72.521C111.634 72.521 110.78 72.9478 110.237 73.8015C109.693 74.6551 109.422 76.1296 109.422 78.2249V86.257H104.766V69.0288H108.258L108.956 71.2405H109.189C109.655 70.4645 110.314 69.8437 111.168 69.378C112.022 68.9124 113.03 68.6796 114.195 68.6796C116.755 68.6796 118.502 69.5333 119.433 71.2405H119.782C120.248 70.4645 120.946 69.8437 121.877 69.378C122.731 68.9124 123.74 68.6796 124.904 68.6796C126.844 68.6796 128.318 69.184 129.327 70.1929C130.259 71.2017 130.724 72.8314 130.724 75.082V86.257H126.068V76.246C126.068 75.0044 125.874 74.0731 125.486 73.4523C125.02 72.8314 124.361 72.521 123.507 72.521C122.343 72.521 121.489 72.909 120.946 73.6851C120.403 74.5387 120.131 75.858 120.131 77.6429V86.257ZM94.1727 86.6062C92.931 86.6062 91.8833 86.4898 91.0297 86.257C90.176 86.1017 89.3612 85.8689 88.5852 85.5585V81.7171C89.4388 82.1051 90.4089 82.4155 91.4953 82.6484C92.5818 82.9588 93.5518 83.114 94.4055 83.114C96.1128 83.114 96.9664 82.6096 96.9664 81.6007C96.9664 81.2903 96.85 81.0187 96.6172 80.7859C96.3844 80.5531 95.9964 80.2814 95.4531 79.971C94.8323 79.6606 94.095 79.3114 93.2414 78.9234C91.9221 78.3801 90.9521 77.8757 90.3312 77.4101C89.7104 76.9445 89.2448 76.4012 88.9344 75.7804C88.624 75.1596 88.4688 74.3835 88.4688 73.4523C88.4688 71.9778 89.0896 70.8137 90.3312 69.9601C91.4953 69.1064 93.1638 68.6796 95.3367 68.6796C97.3544 68.6796 99.3721 69.1452 101.39 70.0765L99.8766 73.4523C99.0229 73.0642 98.2469 72.7538 97.5484 72.521C96.7724 72.2882 95.9964 72.1718 95.2203 72.1718C93.8234 72.1718 93.125 72.5598 93.125 73.3359C93.125 73.7239 93.3578 74.0731 93.8234 74.3835C94.2891 74.6939 95.2591 75.1596 96.7336 75.7804C98.0529 76.3236 99.0617 76.8281 99.7602 77.2937C100.381 77.7593 100.808 78.3025 101.041 78.9234C101.351 79.5442 101.506 80.2814 101.506 81.1351C101.506 82.92 100.885 84.278 99.6437 85.2093C98.4797 86.1405 96.656 86.6062 94.1727 86.6062ZM77.5266 73.2195C77.1385 73.1419 76.6729 73.103 76.1297 73.103C74.6552 73.103 73.4911 73.4911 72.6375 74.2671C71.7839 75.0432 71.357 76.1296 71.357 77.5265V86.257H66.7008V69.0288H70.3094L71.0078 71.939H71.2406C71.7063 70.9301 72.4047 70.1541 73.3359 69.6109C74.2672 68.99 75.2372 68.6796 76.2461 68.6796C76.9445 68.6796 77.4878 68.7184 77.8758 68.796L77.5266 73.2195ZM63.6742 70.7749C63.6742 73.1807 62.937 75.0432 61.4625 76.3624C59.9104 77.6041 57.7375 78.2249 54.9438 78.2249H52.9648V86.257H48.1922V63.6741H55.4094C58.1255 63.6741 60.182 64.295 61.5789 65.5366C62.9758 66.7007 63.6742 68.4468 63.6742 70.7749ZM52.9648 74.3835H54.4781C55.9526 74.3835 57.0779 74.0731 57.8539 73.4523C58.5523 72.909 58.9016 72.0554 58.9016 70.8913C58.9016 69.8049 58.5911 68.99 57.9703 68.4468C57.3495 67.9036 56.3794 67.632 55.0602 67.632H52.9648V74.3835Z" fill="white"/>
</g>
<defs>
<clipPath id="clip0_8_1060">
<rect width="149" height="149" fill="white"/>
</clipPath>
</defs>
</svg>
