<svg width="106" height="106" viewBox="0 0 106 106" fill="none" xmlns="http://www.w3.org/2000/svg">
<path fill-rule="evenodd" clip-rule="evenodd" d="M42.9251 19.0608C46.0355 19.0608 49.1459 19.1088 52.2522 19.0277C53.0762 19.0061 54.5544 19.6877 54.4882 17.9751C54.4377 16.5814 53.145 17.0857 52.3616 17.0733C48.8528 17.0178 45.3324 16.8845 41.8377 17.1039C39.3509 17.2588 38.618 16.3147 38.9302 14.0341C39.0378 13.2473 38.9343 12.4325 38.9509 11.6308C39.0602 6.29275 40.3504 4.47585 45.5279 3.15913C51.232 1.70991 57.0694 1.75794 62.7578 3.00675C67.8715 4.12969 69.9956 8.108 69.7373 11.7882C69.4226 16.2791 69.6661 20.809 69.6619 25.3222C69.6545 30.9974 66.7221 34.0093 61.0006 34.0879C56.2885 34.1525 51.5707 34.2039 46.8611 34.073C41.2481 33.9157 37.1307 38.578 37.1025 43.8615C37.1025 44.2623 37.1713 44.6763 37.0918 45.0631C36.6876 47.0034 38.3025 50.1395 36.2454 50.7159C33.1151 51.5953 29.4498 51.5953 26.6889 48.8021C25.7531 47.858 24.9647 46.8005 24.549 45.5782C22.3304 39.065 21.9801 32.469 24.0687 25.8539C25.3705 21.7249 28.9115 19.1568 33.2981 19.0831C36.5063 19.0293 39.7153 19.0724 42.9234 19.0724L42.9251 19.0608ZM48.6408 9.85204C48.5066 8.27611 47.6595 7.12585 45.9113 7.07782C43.9991 7.02813 43.0112 8.18419 43.0087 10.0657C43.0071 11.8097 43.9569 12.9269 45.6927 12.9774C47.5998 13.0329 48.5232 11.8511 48.6408 9.85204Z" fill="#386F9F"/>
<path fill-rule="evenodd" clip-rule="evenodd" d="M66.9324 50.9891C63.4211 50.9891 59.9082 50.9585 56.397 51.014C55.6061 51.0239 54.2794 50.5237 54.238 51.876C54.1917 53.4097 55.6152 53.0106 56.5195 53.0197C60.0308 53.0636 63.5453 53.1008 67.0558 53.0031C68.8594 52.9534 69.5956 53.2988 69.7306 55.4254C70.3409 65.0523 66.163 65.8846 58.4573 67.6361C54.0368 68.6406 49.2974 68.1081 44.9382 66.1554C41.3334 64.543 39.1214 62.2193 39.4005 57.8684C39.6771 53.5737 39.7235 49.2236 39.3931 44.933C38.9956 39.7548 42.217 35.9462 48.4817 35.9446C52.6969 35.9437 56.9402 35.6224 61.1189 36.0067C67.0939 36.5549 71.7786 31.3758 71.9839 25.3537C71.9922 25.1541 71.9409 24.9396 71.9922 24.7541C72.5189 22.9033 70.6457 20.1522 73.1516 19.2173C76.9386 17.8053 81.2092 19.2893 83.1437 22.1629C85.5826 25.781 85.9122 30.0384 86.3064 34.1956C86.7328 38.6766 85.4757 42.895 83.5934 46.9371C82.3148 49.6782 80.165 51.0032 77.1696 51.0073C73.7578 51.0098 70.3467 51.0073 66.934 51.0073L66.9324 50.9891ZM66.0181 59.9329C65.643 58.222 64.8712 57.0543 62.8837 57.0054C60.8167 56.9558 60.2834 58.5019 60.2941 59.8824C60.3057 61.3498 60.7148 63.1551 62.9524 62.9862C64.8124 62.8437 65.7192 61.6918 66.0181 59.9329Z" fill="#FFCF46"/>
<path fill-rule="evenodd" clip-rule="evenodd" d="M11.7006 95.1091C11.7006 97.2473 11.7975 99.2497 11.6551 101.235C11.5938 102.091 12.5378 103.703 10.7416 103.701C9.15826 103.701 8.75165 102.44 8.80217 100.918C8.89906 98.0108 8.83032 95.0983 8.83032 92.1891V85.5658C8.83032 81.5742 9.90109 80.2227 13.7187 79.3962C17.2681 78.6244 20.0572 79.8194 21.4915 82.9265C22.9258 86.0345 23.0368 89.2368 21.6017 92.3986C20.1872 95.514 17.582 96.6767 14.2446 95.7534C13.4844 95.5463 12.7167 95.3666 11.7006 95.1091ZM11.7006 87.285C11.7006 88.3864 11.8497 89.5093 11.67 90.5809C11.2542 93.0578 12.836 93.6681 14.7009 94.1087C16.5451 94.5443 17.8097 93.7601 18.5492 92.1353C19.7922 89.4108 20.0009 86.6009 19.0568 83.7199C18.2188 81.1593 16.2834 80.8595 14.0243 81.1775C11.7934 81.4947 11.4911 83.0118 11.6857 84.8875C11.7685 85.6784 11.7006 86.4858 11.7006 87.285ZM35.7055 94.9766C34.1776 95.3741 32.8509 95.7981 31.4928 96.0531C28.5198 96.6088 26.3187 94.9766 25.5444 92.0003C24.5837 88.3168 25.397 84.6474 25.4218 80.9722C25.4326 79.2969 26.9828 79.9503 28.0552 79.0526C28.0552 82.9862 28.0702 86.3815 28.0503 89.7743C28.0395 91.4786 28.4801 92.8798 30.0916 93.7783C31.8704 94.7704 33.3296 93.8255 34.8782 93.1887C35.9879 92.7324 35.8496 91.8007 35.8512 90.9146C35.8595 87.7081 35.8504 84.5049 35.8612 81.2984C35.8628 80.5076 35.7808 79.5412 36.9485 79.5801C37.9894 79.614 38.4424 80.2326 38.425 81.3672C38.3497 86.673 38.4996 91.9862 38.2842 97.2846C38.1211 101.291 35.2947 103.738 31.2286 103.918C30.6199 103.944 29.9823 104 29.7546 103.245C29.4076 102.082 30.3492 102.301 30.9678 102.103C35.4405 100.681 36.0251 99.8311 35.7055 94.9766ZM54.6066 81.209C55.79 80.65 56.4699 80.1382 57.2177 79.9999C61.4138 79.224 64.6294 79.5196 64.6211 85.1716C64.6153 88.0824 64.6228 90.9941 64.6153 93.9042C64.6137 94.719 64.6658 95.5124 63.451 95.5828C62.1699 95.659 61.8883 94.9261 61.8941 93.9216C61.909 91.1167 61.9852 88.3118 61.9827 85.5078C61.981 83.3298 61.5363 81.402 58.7663 81.4086C56.3365 81.4127 54.6157 83.2263 54.6033 85.7289C54.5893 88.438 54.5902 91.1471 54.6058 93.8561C54.6082 94.8184 54.629 95.6623 53.2377 95.5828C51.9847 95.5082 52.1388 94.6636 52.1388 93.8859C52.1305 86.7641 52.1653 79.6347 52.1048 72.5079C52.0941 71.2591 52.5868 70.484 53.6948 70.431C55.2583 70.3589 54.542 71.7261 54.5652 72.4118C54.667 75.2034 54.6066 78.0017 54.6066 81.209ZM67.8483 87.5947C67.6901 82.0338 70.3277 79.065 75.1027 79.2372C77.4993 79.325 79.2971 80.3883 80.4573 82.4586C82.5069 86.1206 82.2295 89.7842 80.0118 93.2135C78.4881 95.5687 76.1445 96.6792 73.2874 96.073C70.4701 95.4768 68.264 92.9402 67.8649 89.9838C67.7589 89.2012 67.8483 88.3905 67.8483 87.5947ZM78.8789 87.7247C78.7531 86.7541 78.7754 85.401 78.3713 84.1936C77.8189 82.5373 76.8119 81.204 74.7574 81.1129C72.6846 81.0235 71.6502 82.2351 70.9587 83.912C69.8731 86.5446 69.9435 89.188 71.1194 91.7734C71.8746 93.4388 73.0406 94.6578 75.0613 94.3199C77.0513 93.9878 78.2255 92.6835 78.6322 90.7482C78.8168 89.8712 78.787 88.952 78.8789 87.7247ZM84.6816 88.4659C84.6816 87.4622 84.6626 86.4601 84.6849 85.4614C84.7313 83.536 84.1177 81.4028 86.7138 80.419C89.6868 79.296 92.6333 78.4547 95.6261 80.1929C96.7457 80.8438 97.1581 82.0264 97.1697 83.2818C97.2004 86.7856 97.154 90.2911 97.2012 93.7948C97.2178 95.0172 96.8964 95.6283 95.5226 95.5952C94.0171 95.5596 94.3342 94.5327 94.3442 93.7129C94.3798 90.9138 94.5744 88.1172 94.5214 85.3223C94.4518 81.8028 92.5206 80.3676 89.2305 81.2314C87.8657 81.5908 87.0128 82.2533 87.0799 83.9426C87.2132 87.2402 87.1105 90.5494 87.1229 93.8528C87.1262 94.8101 87.1403 95.6581 85.759 95.5778C84.4936 95.5049 84.7006 94.6296 84.6907 93.8702C84.6675 92.0682 84.6841 90.2654 84.6816 88.4659ZM48.6019 80.6616C48.3948 80.9067 48.2209 81.291 48.0387 81.2943C44.756 81.3398 45.667 83.7903 45.5825 85.608C45.5022 87.3015 45.5825 89.0033 45.5585 90.7018C45.5337 92.3895 45.6802 93.958 47.734 94.406C48.3228 94.5335 48.5911 94.8731 48.4685 95.461C48.3335 96.1103 47.816 96.0846 47.3034 96.078C44.9432 96.0366 43.1934 94.3679 43.1238 91.9249C43.0526 89.429 43.1495 86.9272 43.0907 84.4337C43.06 83.2495 43.6753 81.7382 41.7657 81.2686C41.5562 81.2181 41.4816 80.6243 41.345 80.2856C43.8923 79.4865 42.8356 77.2895 43.1851 75.6225C43.3507 74.8333 44.1002 74.6171 44.8082 74.5501C45.5245 74.4821 45.5303 75.0618 45.5535 75.5463C45.6479 77.4675 44.6534 80.0389 48.1903 79.8989C48.3087 79.8948 48.447 80.3651 48.6019 80.6616Z" fill="#386F9F"/>
</svg>
