<svg width="91" height="91" viewBox="0 0 91 91" fill="none" xmlns="http://www.w3.org/2000/svg">
<path d="M45.0671 8.7076C42.0655 8.72182 39.2004 8.97704 36.678 9.42351C29.2487 10.7359 27.9008 13.483 27.9008 18.5498V25.2404H45.4559V27.4707H21.3118C16.2101 27.4707 11.7426 30.5369 10.3449 36.3723C8.73247 43.0587 8.66137 47.2319 10.3449 54.214C11.5926 59.4117 14.5728 63.1142 19.6752 63.1142H25.7118V55.0934C25.7118 49.2986 30.7246 44.1876 36.6787 44.1876H54.214C59.0953 44.1876 62.9912 40.168 62.9912 35.2668V18.5505C62.9912 13.7922 58.9773 10.2183 54.214 9.42422C51.1968 8.9223 48.0679 8.69409 45.0671 8.7076ZM35.5732 14.0887C37.3861 14.0887 38.8677 15.5937 38.8677 17.445C38.8677 19.2885 37.3868 20.7793 35.5732 20.7793C33.7532 20.7793 32.2794 19.2885 32.2794 17.445C32.2787 15.5937 33.7532 14.0887 35.5732 14.0887Z" fill="url(#paint0_linear_8_1091)"/>
<path d="M65.1802 27.4704V35.2666C65.1802 41.3095 60.0558 46.3963 54.2133 46.3963H36.678C31.8749 46.3963 27.9008 50.5077 27.9008 55.3179V72.0356C27.9008 76.7924 32.037 79.5914 36.678 80.9557C42.2347 82.5887 47.5639 82.8845 54.2133 80.9557C58.6325 79.6753 62.9905 77.1003 62.9905 72.0356V65.3442H45.4559V63.1133H71.7692C76.8708 63.1133 78.7733 59.5551 80.5478 54.2131C82.3806 48.714 82.3017 43.4253 80.5478 36.3714C79.2866 31.2917 76.8787 27.4697 71.7692 27.4697L65.1802 27.4704ZM55.3174 69.8046C57.1381 69.8046 58.6118 71.2955 58.6118 73.1404C58.6118 74.9902 57.1374 76.4953 55.3174 76.4953C53.5045 76.4953 52.0236 74.9902 52.0236 73.1404C52.0236 71.2955 53.5045 69.8046 55.3174 69.8046Z" fill="url(#paint1_linear_8_1091)"/>
<path opacity="0.444" d="M69.1806 85.026C69.1806 87.5448 58.6474 89.5873 45.655 89.5873C32.6619 89.5873 22.1287 87.5448 22.1287 85.026C22.1287 82.5071 32.6612 80.4639 45.655 80.4639C58.6474 80.4639 69.1806 82.5057 69.1806 85.026Z" fill="url(#paint2_radial_8_1091)"/>
<defs>
<linearGradient id="paint0_linear_8_1091" x1="7.34889" y1="10.7996" x2="47.8395" y2="45.3298" gradientUnits="userSpaceOnUse">
<stop stop-color="#5A9FD4"/>
<stop offset="1" stop-color="#306998"/>
</linearGradient>
<linearGradient id="paint1_linear_8_1091" x1="63.0736" y1="66.7941" x2="48.553" y2="46.4313" gradientUnits="userSpaceOnUse">
<stop stop-color="#FFD43B"/>
<stop offset="1" stop-color="#FFE873"/>
</linearGradient>
<radialGradient id="paint2_radial_8_1091" cx="0" cy="0" r="1" gradientUnits="userSpaceOnUse" gradientTransform="translate(45.5599 84.8953) rotate(-90) scale(4.56302 20.0583)">
<stop stop-color="#B8B8B8" stop-opacity="0.498"/>
<stop offset="1" stop-color="#7F7F7F" stop-opacity="0"/>
</radialGradient>
</defs>
</svg>
