<svg width="82" height="82" viewBox="0 0 82 82" fill="none" xmlns="http://www.w3.org/2000/svg">
<g clip-path="url(#clip0_8_1089)">
<path d="M80.9511 36.579L64.7902 8.61355C63.3894 6.18772 59.9488 4.19238 57.1369 4.19238H24.8494C22.0477 4.19238 18.5935 6.18772 17.1961 8.61355L1.0455 36.579C-0.355335 39.0048 -0.355335 42.9784 1.0455 45.4076L17.1892 73.3867C18.5901 75.8125 22.0307 77.8079 24.8426 77.8079H57.1472C59.9488 77.8079 63.386 75.8125 64.8005 73.3867L80.9477 45.4042C82.3485 42.9784 82.3485 39.0048 80.9477 36.579H80.9511ZM37.5013 19.663C37.5013 17.8283 38.9978 16.3318 40.8292 16.3318C42.6605 16.3318 44.1604 17.8283 44.1604 19.663V39.5515C44.1062 40.3972 43.732 41.1906 43.1139 41.7703C42.4957 42.3501 41.6801 42.6728 40.8326 42.6728C39.9851 42.6728 39.1694 42.3501 38.5513 41.7703C37.9332 41.1906 37.559 40.3972 37.5047 39.5515L37.5013 19.663ZM40.8292 62.1322C34.8435 62.1241 29.1054 59.7422 24.8736 55.5091C20.6417 51.2759 18.2616 45.5371 18.2552 39.5515C18.2639 36.0309 19.0917 32.5607 20.6733 29.4154C22.2548 26.27 24.5467 23.536 27.3675 21.4295C27.6799 21.1967 28.0353 21.0279 28.4131 20.9329C28.7909 20.8378 29.1838 20.8182 29.5692 20.8754C29.9546 20.9325 30.3249 21.0652 30.6588 21.2658C30.9928 21.4665 31.2839 21.7311 31.5153 22.0445C31.7479 22.3564 31.9167 22.7111 32.012 23.0883C32.1074 23.4655 32.1273 23.8579 32.0709 24.2428C32.0144 24.6278 31.8825 24.9978 31.6828 25.3317C31.4831 25.6657 31.2196 25.9569 30.9072 26.1889C27.4844 28.8667 25.2435 32.776 24.6625 37.0828C24.0815 41.3896 25.2064 45.753 27.7972 49.242C30.3881 52.7311 34.2397 55.0697 38.5306 55.7589C42.8214 56.4481 47.2117 55.4333 50.7648 52.9311C52.8506 51.3793 54.5445 49.3612 55.7114 47.0381C56.8783 44.715 57.4858 42.1512 57.4854 39.5515C57.4778 36.942 56.8602 34.3704 55.6821 32.042C54.5039 29.7136 52.7978 27.6929 50.6999 26.141C50.0684 25.6729 49.648 24.9736 49.5309 24.1962C49.4137 23.4189 49.6092 22.6268 50.0747 21.9932C50.5428 21.3617 51.2421 20.9413 52.0195 20.8242C52.7968 20.707 53.589 20.9025 54.2225 21.368C57.0662 23.4716 59.3777 26.212 60.9719 29.3696C62.5662 32.5272 63.3988 36.0142 63.4031 39.5515C63.3986 45.538 61.0184 51.278 56.7853 55.5111C52.5522 59.7441 46.8122 62.1243 40.8258 62.1288" fill="white"/>
</g>
<defs>
<clipPath id="clip0_8_1089">
<rect width="82" height="82" fill="white"/>
</clipPath>
</defs>
</svg>
