<svg width="164" height="76" viewBox="0 0 164 76" fill="none" xmlns="http://www.w3.org/2000/svg">
<path d="M5.472 35.5875C5.136 35.4035 4.792 35.2515 4.44 35.1315C4.096 35.0115 3.772 34.9515 3.468 34.9515C3.092 34.9515 2.796 35.0275 2.58 35.1795C2.364 35.3315 2.256 35.5595 2.256 35.8635C2.256 36.0715 2.336 36.2595 2.496 36.4275C2.664 36.5875 2.876 36.7315 3.132 36.8595C3.396 36.9875 3.668 37.1035 3.948 37.2075C4.204 37.3035 4.456 37.4195 4.704 37.5555C4.96 37.6835 5.188 37.8475 5.388 38.0475C5.588 38.2395 5.748 38.4835 5.868 38.7795C5.988 39.0675 6.048 39.4235 6.048 39.8475C6.048 40.2955 5.932 40.7115 5.7 41.0955C5.468 41.4795 5.128 41.7915 4.68 42.0315C4.232 42.2635 3.68 42.3795 3.024 42.3795C2.688 42.3795 2.344 42.3475 1.992 42.2835C1.648 42.2115 1.308 42.1075 0.972 41.9715C0.636 41.8275 0.312 41.6475 0 41.4315L0.768 40.0755C0.976 40.2275 1.2 40.3635 1.44 40.4835C1.688 40.5955 1.936 40.6835 2.184 40.7475C2.432 40.8115 2.66 40.8435 2.868 40.8435C3.076 40.8435 3.284 40.8155 3.492 40.7595C3.708 40.6955 3.884 40.5915 4.02 40.4475C4.164 40.3035 4.236 40.1035 4.236 39.8475C4.236 39.6715 4.176 39.5115 4.056 39.3675C3.944 39.2235 3.788 39.0915 3.588 38.9715C3.396 38.8515 3.184 38.7475 2.952 38.6595C2.68 38.5555 2.4 38.4355 2.112 38.2995C1.824 38.1635 1.552 37.9995 1.296 37.8075C1.048 37.6075 0.844 37.3635 0.684 37.0755C0.532 36.7795 0.456 36.4195 0.456 35.9955C0.456 35.4835 0.568 35.0395 0.792 34.6635C1.024 34.2875 1.348 33.9915 1.764 33.7755C2.18 33.5515 2.66 33.4275 3.204 33.4035C3.916 33.4035 4.492 33.4875 4.932 33.6555C5.38 33.8235 5.78 34.0235 6.132 34.2555L5.472 35.5875Z" fill="white"/>
<path d="M10.4281 33.4515C11.1561 33.4515 11.7721 33.5755 12.2761 33.8235C12.7801 34.0635 13.1641 34.4075 13.4281 34.8555C13.6921 35.2955 13.8241 35.8195 13.8241 36.4275C13.8241 36.7875 13.7681 37.1515 13.6561 37.5195C13.5521 37.8795 13.3801 38.2075 13.1401 38.5035C12.9081 38.7995 12.5921 39.0395 12.1921 39.2235C11.8001 39.3995 11.3161 39.4875 10.7401 39.4875H9.49209V42.2835H7.75209V33.4515H10.4281ZM10.7281 37.7955C10.9921 37.7955 11.2121 37.7515 11.3881 37.6635C11.5641 37.5675 11.7001 37.4515 11.7961 37.3155C11.9001 37.1715 11.9721 37.0235 12.0121 36.8715C12.0601 36.7195 12.0841 36.5875 12.0841 36.4755C12.0841 36.3875 12.0681 36.2715 12.0361 36.1275C12.0121 35.9755 11.9561 35.8235 11.8681 35.6715C11.7801 35.5195 11.6441 35.3915 11.4601 35.2875C11.2841 35.1835 11.0441 35.1315 10.7401 35.1315H9.49209V37.7955H10.7281Z" fill="white"/>
<path d="M18.057 33.4515C18.609 33.4515 19.101 33.5235 19.533 33.6675C19.965 33.8035 20.325 34.0035 20.613 34.2675C20.909 34.5235 21.133 34.8355 21.285 35.2035C21.437 35.5635 21.513 35.9715 21.513 36.4275C21.513 36.7875 21.457 37.1475 21.345 37.5075C21.241 37.8675 21.065 38.1955 20.817 38.4915C20.577 38.7875 20.257 39.0275 19.857 39.2115C19.457 39.3875 18.961 39.4755 18.369 39.4755H17.121V42.2835H15.381V33.4515H18.057ZM18.357 37.7955C18.621 37.7955 18.841 37.7515 19.017 37.6635C19.193 37.5755 19.329 37.4635 19.425 37.3275C19.529 37.1915 19.601 37.0515 19.641 36.9075C19.689 36.7555 19.713 36.6155 19.713 36.4875C19.713 36.3915 19.697 36.2715 19.665 36.1275C19.641 35.9755 19.585 35.8235 19.497 35.6715C19.409 35.5195 19.273 35.3915 19.089 35.2875C18.913 35.1835 18.673 35.1315 18.369 35.1315H17.121V37.7955H18.357ZM19.989 38.8755L22.173 42.2835H20.145L17.913 38.9235L19.989 38.8755Z" fill="white"/>
<path d="M23.6076 33.4515H25.3476V42.2835H23.6076V33.4515Z" fill="white"/>
<path d="M35.5351 42.6435L28.8391 36.5955L29.3551 36.8835L29.3911 42.2835H27.6271V33.1035H27.6991L34.2511 39.1275L33.8671 38.9595L33.8311 33.4515H35.5831V42.6435H35.5351Z" fill="white"/>
<path d="M45.0216 41.3955C44.9176 41.5075 44.7536 41.6235 44.5296 41.7435C44.3056 41.8555 44.0456 41.9595 43.7496 42.0555C43.4616 42.1515 43.1656 42.2275 42.8616 42.2835C42.5576 42.3475 42.2696 42.3795 41.9976 42.3795C41.2776 42.3795 40.6296 42.2755 40.0536 42.0675C39.4776 41.8515 38.9856 41.5555 38.5776 41.1795C38.1696 40.7955 37.8576 40.3435 37.6416 39.8235C37.4256 39.3035 37.3176 38.7355 37.3176 38.1195C37.3176 37.3115 37.4376 36.6115 37.6776 36.0195C37.9256 35.4195 38.2576 34.9235 38.6736 34.5315C39.0976 34.1315 39.5816 33.8355 40.1256 33.6435C40.6776 33.4515 41.2536 33.3555 41.8536 33.3555C42.4216 33.3555 42.9416 33.4195 43.4136 33.5475C43.8856 33.6675 44.2856 33.8195 44.6136 34.0035L44.0496 35.6235C43.9056 35.5435 43.7136 35.4635 43.4736 35.3835C43.2336 35.3035 42.9896 35.2395 42.7416 35.1915C42.4936 35.1355 42.2736 35.1075 42.0816 35.1075C41.6016 35.1075 41.1776 35.1675 40.8096 35.2875C40.4416 35.4075 40.1296 35.5875 39.8736 35.8275C39.6256 36.0675 39.4376 36.3675 39.3096 36.7275C39.1816 37.0795 39.1176 37.4915 39.1176 37.9635C39.1176 38.3795 39.1896 38.7555 39.3336 39.0915C39.4776 39.4195 39.6776 39.6995 39.9336 39.9315C40.1976 40.1635 40.5056 40.3395 40.8576 40.4595C41.2176 40.5795 41.6136 40.6395 42.0456 40.6395C42.2936 40.6395 42.5216 40.6235 42.7296 40.5915C42.9376 40.5515 43.1136 40.4915 43.2576 40.4115V39.3435H41.7336V37.6635H45.0216V41.3955Z" fill="white"/>
<path d="M49.5902 33.4515C50.5102 33.4515 51.2422 33.6395 51.7862 34.0155C52.3302 34.3835 52.6022 34.9355 52.6022 35.6715C52.6022 36.2155 52.4662 36.6715 52.1942 37.0395C51.9302 37.3995 51.5662 37.6715 51.1022 37.8555C50.6462 38.0315 50.1222 38.1195 49.5302 38.1195L49.2542 37.1835C49.9822 37.1835 50.6262 37.2835 51.1862 37.4835C51.7542 37.6835 52.2022 37.9715 52.5302 38.3475C52.8582 38.7155 53.0222 39.1595 53.0222 39.6795C53.0222 40.1595 52.9342 40.5675 52.7582 40.9035C52.5902 41.2315 52.3582 41.4995 52.0622 41.7075C51.7742 41.9075 51.4462 42.0555 51.0782 42.1515C50.7102 42.2395 50.3302 42.2835 49.9382 42.2835H46.9982V33.4515H49.5902ZM49.7942 37.0635C50.1382 37.0635 50.3902 36.9595 50.5502 36.7515C50.7182 36.5435 50.8022 36.3075 50.8022 36.0435C50.8022 35.7395 50.6982 35.5115 50.4902 35.3595C50.2902 35.2075 50.0182 35.1315 49.6742 35.1315H48.7382V37.0635H49.7942ZM49.8542 40.6635C50.1102 40.6635 50.3422 40.6315 50.5502 40.5675C50.7582 40.4955 50.9222 40.3875 51.0422 40.2435C51.1622 40.0915 51.2222 39.9035 51.2222 39.6795C51.2222 39.4235 51.1502 39.2315 51.0062 39.1035C50.8622 38.9675 50.6742 38.8755 50.4422 38.8275C50.2182 38.7715 49.9822 38.7435 49.7342 38.7435H48.7382V40.6635H49.8542Z" fill="white"/>
<path d="M54.2277 37.8795C54.2277 37.2715 54.3437 36.6955 54.5757 36.1515C54.8077 35.6075 55.1277 35.1275 55.5357 34.7115C55.9517 34.2875 56.4317 33.9555 56.9757 33.7155C57.5197 33.4755 58.1037 33.3555 58.7277 33.3555C59.3437 33.3555 59.9237 33.4755 60.4677 33.7155C61.0117 33.9555 61.4917 34.2875 61.9077 34.7115C62.3317 35.1275 62.6597 35.6075 62.8917 36.1515C63.1317 36.6955 63.2517 37.2715 63.2517 37.8795C63.2517 38.5035 63.1317 39.0875 62.8917 39.6315C62.6597 40.1755 62.3317 40.6555 61.9077 41.0715C61.4917 41.4795 61.0117 41.7995 60.4677 42.0315C59.9237 42.2635 59.3437 42.3795 58.7277 42.3795C58.1037 42.3795 57.5197 42.2635 56.9757 42.0315C56.4317 41.7995 55.9517 41.4795 55.5357 41.0715C55.1277 40.6555 54.8077 40.1755 54.5757 39.6315C54.3437 39.0875 54.2277 38.5035 54.2277 37.8795ZM56.0277 37.8795C56.0277 38.2715 56.0957 38.6395 56.2317 38.9835C56.3757 39.3195 56.5717 39.6195 56.8197 39.8835C57.0757 40.1395 57.3677 40.3395 57.6957 40.4835C58.0317 40.6275 58.3957 40.6995 58.7877 40.6995C59.1637 40.6995 59.5117 40.6275 59.8317 40.4835C60.1597 40.3395 60.4437 40.1395 60.6837 39.8835C60.9237 39.6195 61.1117 39.3195 61.2477 38.9835C61.3837 38.6395 61.4517 38.2715 61.4517 37.8795C61.4517 37.4795 61.3797 37.1075 61.2357 36.7635C61.0997 36.4195 60.9077 36.1195 60.6597 35.8635C60.4197 35.5995 60.1357 35.3955 59.8077 35.2515C59.4797 35.1075 59.1237 35.0355 58.7397 35.0355C58.3557 35.0355 57.9997 35.1075 57.6717 35.2515C57.3437 35.3955 57.0557 35.5995 56.8077 35.8635C56.5597 36.1195 56.3677 36.4195 56.2317 36.7635C56.0957 37.1075 56.0277 37.4795 56.0277 37.8795Z" fill="white"/>
<path d="M64.4465 37.8795C64.4465 37.2715 64.5625 36.6955 64.7945 36.1515C65.0265 35.6075 65.3465 35.1275 65.7545 34.7115C66.1705 34.2875 66.6505 33.9555 67.1945 33.7155C67.7385 33.4755 68.3225 33.3555 68.9465 33.3555C69.5625 33.3555 70.1425 33.4755 70.6865 33.7155C71.2305 33.9555 71.7105 34.2875 72.1265 34.7115C72.5505 35.1275 72.8785 35.6075 73.1105 36.1515C73.3505 36.6955 73.4705 37.2715 73.4705 37.8795C73.4705 38.5035 73.3505 39.0875 73.1105 39.6315C72.8785 40.1755 72.5505 40.6555 72.1265 41.0715C71.7105 41.4795 71.2305 41.7995 70.6865 42.0315C70.1425 42.2635 69.5625 42.3795 68.9465 42.3795C68.3225 42.3795 67.7385 42.2635 67.1945 42.0315C66.6505 41.7995 66.1705 41.4795 65.7545 41.0715C65.3465 40.6555 65.0265 40.1755 64.7945 39.6315C64.5625 39.0875 64.4465 38.5035 64.4465 37.8795ZM66.2465 37.8795C66.2465 38.2715 66.3145 38.6395 66.4505 38.9835C66.5945 39.3195 66.7905 39.6195 67.0385 39.8835C67.2945 40.1395 67.5865 40.3395 67.9145 40.4835C68.2505 40.6275 68.6145 40.6995 69.0065 40.6995C69.3825 40.6995 69.7305 40.6275 70.0505 40.4835C70.3785 40.3395 70.6625 40.1395 70.9025 39.8835C71.1425 39.6195 71.3305 39.3195 71.4665 38.9835C71.6025 38.6395 71.6705 38.2715 71.6705 37.8795C71.6705 37.4795 71.5985 37.1075 71.4545 36.7635C71.3185 36.4195 71.1265 36.1195 70.8785 35.8635C70.6385 35.5995 70.3545 35.3955 70.0265 35.2515C69.6985 35.1075 69.3425 35.0355 68.9585 35.0355C68.5745 35.0355 68.2185 35.1075 67.8905 35.2515C67.5625 35.3955 67.2745 35.5995 67.0265 35.8635C66.7785 36.1195 66.5865 36.4195 66.4505 36.7635C66.3145 37.1075 66.2465 37.4795 66.2465 37.8795Z" fill="white"/>
<path d="M74.3005 33.4515H80.2525V35.1315H78.1045V42.2835H76.3645V35.1315H74.3005V33.4515Z" fill="white"/>
<g clip-path="url(#clip0_8_1103)">
<path d="M163.031 33.7897L148.103 7.95661C146.808 5.71575 143.63 3.87256 141.033 3.87256H111.207C108.619 3.87256 105.428 5.71575 104.137 7.95661L89.2183 33.7897C87.9243 36.0305 87.9243 39.7011 89.2183 41.9451L104.131 67.7908C105.425 70.0317 108.603 71.8749 111.201 71.8749H141.042C143.63 71.8749 146.805 70.0317 148.112 67.7908L163.028 41.942C164.322 39.7011 164.322 36.0305 163.028 33.7897H163.031ZM122.894 18.1636C122.894 16.4687 124.277 15.0863 125.968 15.0863C127.66 15.0863 129.046 16.4687 129.046 18.1636V36.5355C128.996 37.3167 128.65 38.0496 128.079 38.5852C127.508 39.1207 126.754 39.4188 125.972 39.4188C125.189 39.4188 124.435 39.1207 123.864 38.5852C123.293 38.0496 122.948 37.3167 122.898 36.5355L122.894 18.1636ZM125.968 57.3945C120.439 57.3869 115.139 55.1867 111.229 51.2763C107.32 47.366 105.122 42.0648 105.116 36.5355C105.124 33.2834 105.888 30.0778 107.349 27.1723C108.81 24.2668 110.928 21.7412 113.533 19.7953C113.822 19.5803 114.15 19.4244 114.499 19.3366C114.848 19.2487 115.211 19.2307 115.567 19.2835C115.923 19.3363 116.265 19.4588 116.574 19.6442C116.882 19.8295 117.151 20.0739 117.365 20.3634C117.58 20.6515 117.736 20.9792 117.824 21.3277C117.912 21.6761 117.93 22.0385 117.878 22.3941C117.826 22.7497 117.704 23.0916 117.52 23.4C117.335 23.7085 117.092 23.9776 116.803 24.1918C113.641 26.6655 111.571 30.2767 111.035 34.2551C110.498 38.2335 111.537 42.2641 113.93 45.4872C116.324 48.7102 119.881 50.8705 123.845 51.5071C127.809 52.1437 131.864 51.2064 135.147 48.895C137.073 47.4614 138.638 45.5973 139.716 43.4513C140.794 41.3053 141.355 38.937 141.355 36.5355C141.348 34.125 140.777 31.7495 139.689 29.5987C138.601 27.4478 137.025 25.5811 135.087 24.1476C134.503 23.7152 134.115 23.0692 134.007 22.3511C133.898 21.633 134.079 20.9013 134.509 20.3161C134.941 19.7327 135.587 19.3444 136.306 19.2362C137.024 19.1279 137.755 19.3085 138.341 19.7385C140.967 21.6818 143.103 24.2132 144.575 27.13C146.048 30.0468 146.817 33.268 146.821 36.5355C146.817 42.0655 144.618 47.3678 140.708 51.2782C136.798 55.1885 131.495 57.3871 125.965 57.3913" fill="white"/>
</g>
<defs>
<clipPath id="clip0_8_1103">
<rect width="75.7475" height="75.7475" fill="white" transform="translate(88.2526)"/>
</clipPath>
</defs>
</svg>
