<svg width="215" height="27" viewBox="0 0 215 27" fill="none" xmlns="http://www.w3.org/2000/svg">
<g clip-path="url(#clip0_8_1110)">
<path d="M22.2 0C16.28 0 12.5799 2.9738 11.0998 8.92139C13.3198 5.94717 15.9099 4.83202 18.87 5.57592C20.5585 5.99991 21.7658 7.23094 23.102 8.59359C25.2785 10.8127 27.7976 13.3819 33.2998 13.3819C39.2199 13.3819 42.9198 10.4081 44.3996 4.46048C42.1796 7.4347 39.5897 8.54986 36.6298 7.80595C34.9409 7.38197 33.734 6.15094 32.3978 4.78828C30.2209 2.56922 27.7022 0 22.2 0ZM11.0998 13.3819C5.18002 13.3819 1.48008 16.3557 0 22.3033C2.21999 19.329 4.80993 18.2139 7.76981 18.9578C9.45874 19.3818 10.666 20.6128 12.0018 21.975C14.1787 24.195 16.6978 26.7633 22.2 26.7633C28.1198 26.7633 31.8197 23.7897 33.2998 17.8424C31.0798 20.8166 28.4899 21.9317 25.53 21.1878C23.8411 20.7638 22.6338 19.5328 21.2976 18.1702C19.1211 15.9511 16.602 13.3819 11.0998 13.3819Z" fill="url(#paint0_linear_8_1110)"/>
<path d="M66.5963 11.2766H62.7221V18.8104C62.7221 20.8194 64.0343 20.7882 66.5963 20.6624V23.7071C61.4098 24.3349 59.3476 22.8912 59.3476 18.8104V11.277H56.4732V8.01252H59.3476V3.7963L62.7221 2.79223V8.01252H66.5963V11.2766ZM81.3649 8.01252H84.7394V23.7071H81.3649V21.4471C80.1778 23.111 78.3343 24.1155 75.8975 24.1155C71.6479 24.1155 68.1172 20.5055 68.1172 15.8598C68.1172 11.1829 71.6479 7.60456 75.8971 7.60456C78.3343 7.60456 80.1778 8.60863 81.3649 10.2413V8.01252ZM76.4283 20.8822C79.2401 20.8822 81.3649 18.7792 81.3649 15.8598C81.3649 12.9404 79.2401 10.8374 76.4283 10.8374C73.6165 10.8374 71.4917 12.9404 71.4917 15.8598C71.4917 18.7792 73.6165 20.8822 76.4283 20.8822ZM90.3634 5.65803C89.1759 5.65803 88.2075 4.65397 88.2075 3.49255C88.2087 2.91846 88.4361 2.3682 88.8402 1.96225C89.2443 1.55631 89.792 1.32776 90.3634 1.32664C90.9349 1.32776 91.4826 1.55631 91.8866 1.96225C92.2907 2.3682 92.5182 2.91846 92.5193 3.49255C92.5193 4.65397 91.5505 5.65803 90.3634 5.65803ZM88.6762 23.7071V8.01252H92.0502V23.7071H88.6762ZM95.9559 23.7071V0.792969H99.3304V23.7071H95.9559ZM121.233 8.01252H124.794L119.889 23.7071H116.577L113.328 13.129L110.047 23.7071H106.735L101.83 8.01252H105.392L108.423 18.842L111.703 8.01252H114.921L118.171 18.842L121.233 8.01252ZM128.981 5.65845C127.794 5.65845 126.825 4.65397 126.825 3.49255C126.826 2.91846 127.054 2.3682 127.458 1.96225C127.862 1.55631 128.41 1.32776 128.981 1.32664C129.553 1.32776 130.1 1.55631 130.504 1.96225C130.908 2.3682 131.136 2.91846 131.137 3.49255C131.137 4.65397 130.168 5.65803 128.981 5.65803M127.294 23.7067V8.01252H130.668V23.7071L127.294 23.7067ZM142.791 7.60372C146.29 7.60372 148.79 9.98942 148.79 14.0702V23.7067H145.416V14.4157C145.416 12.0305 144.041 10.775 141.916 10.775C139.698 10.775 137.948 12.0929 137.948 15.2949V23.7071H134.574V8.01252H137.948V10.0215C138.979 8.38883 140.666 7.60372 142.791 7.60372ZM164.787 1.73459H168.162V23.7071H164.787V21.4471C163.6 23.111 161.756 24.1155 159.32 24.1155C155.07 24.1155 151.539 20.5055 151.539 15.8598C151.539 11.1829 155.07 7.60456 159.319 7.60456C161.756 7.60456 163.6 8.60863 164.787 10.2413V1.73459ZM159.85 20.8822C162.662 20.8822 164.787 18.7792 164.787 15.8598C164.787 12.9404 162.662 10.8374 159.85 10.8374C157.039 10.8374 154.914 12.9404 154.914 15.8598C154.914 18.7792 157.039 20.8822 159.85 20.8822ZM179.472 24.1155C174.754 24.1155 171.223 20.5055 171.223 15.8598C171.223 11.1829 174.754 7.60456 179.472 7.60456C182.534 7.60456 185.189 9.20516 186.439 11.6537L183.534 13.3488C182.846 11.8735 181.315 10.9315 179.441 10.9315C176.691 10.9315 174.598 13.0349 174.598 15.8598C174.598 18.6847 176.691 20.7882 179.441 20.7882C181.315 20.7882 182.846 19.8149 183.596 18.3708L186.502 20.0347C185.189 22.5145 182.534 24.1155 179.472 24.1155ZM192.063 12.3443C192.063 15.2004 200.468 13.4741 200.468 19.2812C200.468 22.42 197.75 24.1155 194.375 24.1155C191.251 24.1155 189.001 22.7026 188.002 20.4426L190.907 18.7475C191.407 20.1604 192.657 21.0075 194.375 21.0075C195.875 21.0075 197.031 20.5055 197.031 19.25C197.031 16.4563 188.626 18.0257 188.626 12.4072C188.626 9.45617 191.157 7.60456 194.344 7.60456C196.906 7.60456 199.03 8.7972 200.124 10.869L197.281 12.4696C196.719 11.2458 195.625 10.6809 194.344 10.6809C193.125 10.6809 192.063 11.2141 192.063 12.3443ZM206.467 12.3443C206.467 15.2004 214.872 13.4741 214.872 19.2812C214.872 22.42 212.153 24.1155 208.779 24.1155C205.655 24.1155 203.405 22.7026 202.405 20.4426L205.311 18.7475C205.81 20.1604 207.061 21.0075 208.779 21.0075C210.278 21.0075 211.434 20.5055 211.434 19.25C211.434 16.4563 203.03 18.0257 203.03 12.4072C203.03 9.45617 205.561 7.60456 208.748 7.60456C211.309 7.60456 213.434 8.7972 214.528 10.869L211.685 12.4696C211.122 11.2458 210.029 10.6809 208.748 10.6809C207.529 10.6809 206.467 11.2141 206.467 12.3443Z" fill="#2D3748"/>
</g>
<defs>
<linearGradient id="paint0_linear_8_1110" x1="-123.342" y1="856.426" x2="3720.12" y2="3062.27" gradientUnits="userSpaceOnUse">
<stop stop-color="#2298BD"/>
<stop offset="1" stop-color="#0ED7B5"/>
</linearGradient>
<clipPath id="clip0_8_1110">
<rect width="215" height="27" fill="white"/>
</clipPath>
</defs>
</svg>
