<svg width="90" height="90" viewBox="0 0 90 90" fill="none" xmlns="http://www.w3.org/2000/svg">
<g clip-path="url(#clip0_8_1105)">
<path d="M22.6343 68.8731C22.3705 68.8723 22.1124 68.9496 21.8925 69.0952C21.6682 69.2436 21.4629 69.4995 21.4629 69.8272C21.4629 69.8708 21.4376 69.9678 21.522 70.1366L21.5002 70.0831L26.0072 84.706C26.0881 84.9802 26.2814 85.1898 26.4994 85.3107C26.7174 85.4316 26.955 85.4759 27.1871 85.4759C27.6792 85.4759 28.2206 85.2411 28.3859 84.7109V84.7095L32.8887 70.0318V69.9784C32.8887 70.0529 32.9105 70.01 32.9105 69.8497C32.9105 69.5157 32.6974 69.2703 32.4696 69.1163C32.2417 68.9598 31.972 68.875 31.6955 68.8731C31.351 68.8731 30.9558 69.0819 30.8236 69.4798L30.8208 69.4841L27.1856 81.6158L23.5364 69.5059C23.4823 69.2893 23.3367 69.1086 23.1673 69.0073C22.9978 68.9061 22.8129 68.8731 22.6343 68.8731ZM58.5324 69.6268C57.8152 69.6268 57.2105 70.1766 57.2105 70.8643C57.2105 71.552 57.8053 72.1208 58.5324 72.1208C59.2453 72.1208 59.8121 71.5414 59.8121 70.8643C59.8121 70.1872 59.2355 69.6268 58.5324 69.6268ZM47.9651 74.3082C45.5126 74.3082 43.4925 76.2713 43.4925 78.6303V81.0477C43.4925 82.3688 44.0185 83.5016 44.9128 84.2827C45.8058 85.0646 47.0531 85.497 48.4826 85.497C49.5387 85.497 50.4 85.2601 51.0153 84.9395C51.3242 84.7782 51.57 84.5991 51.7528 84.4023C51.9356 84.2054 52.0692 83.9909 52.0692 83.7223C52.0692 83.4763 51.975 83.2625 51.821 83.0705C51.667 82.8786 51.4259 82.7021 51.1137 82.7021C50.8887 82.7021 50.7157 82.797 50.566 82.8891C50.4162 82.9806 50.2756 83.0825 50.1061 83.1802C49.7672 83.375 49.3186 83.5648 48.5255 83.5648C47.6424 83.5648 46.9069 83.3131 46.3992 82.8898C45.893 82.468 45.5977 81.8809 45.5977 81.1116V80.6645H50.1223C50.6053 80.6645 51.1418 80.6645 51.6059 80.3691C52.0699 80.0724 52.3512 79.4832 52.3512 78.5881C52.3512 76.1061 50.2812 74.3082 47.9651 74.3082ZM64.9709 74.3082C63.6673 74.3082 62.7082 74.7301 62.0923 75.3643C61.4763 75.9985 61.2106 76.824 61.2106 77.5946C61.2106 78.5776 61.6078 79.2821 62.176 79.7328C62.7448 80.1849 63.4521 80.412 64.125 80.6145C64.7979 80.817 65.442 80.9977 65.8744 81.2642C66.3068 81.5314 66.5389 81.819 66.5389 82.4272C66.5389 82.7541 66.4404 83.0143 66.1753 83.2266C65.9096 83.4397 65.4371 83.607 64.6685 83.607C63.7594 83.607 63.251 83.3827 62.8805 83.1542C62.6956 83.0396 62.5465 82.9208 62.3932 82.8146C62.2399 82.7084 62.0656 82.5938 61.8216 82.5938C61.5284 82.5938 61.3118 82.7745 61.1803 82.9616C61.0473 83.1451 60.9748 83.3656 60.9729 83.5923C60.9729 83.877 61.1121 84.1273 61.3083 84.3446C61.5052 84.5619 61.7703 84.7552 62.0965 84.924C62.7483 85.2615 63.6462 85.497 64.7121 85.497C65.8702 85.497 66.8222 85.2144 67.4965 84.6659C68.1701 84.1175 68.5371 83.3026 68.5371 82.3632C68.5371 81.3015 68.1511 80.5386 67.583 80.0338C67.0142 79.5296 66.2963 79.2695 65.6135 79.0599C64.9308 78.8511 64.2734 78.688 63.8339 78.4588C63.3945 78.2295 63.1871 78.0179 63.1871 77.5306C63.1871 77.267 63.2925 76.9351 63.5604 76.6728C63.8283 76.412 64.2656 76.1996 64.9927 76.1996C65.5735 76.1996 66.0052 76.3332 66.3511 76.4738C66.5241 76.5448 66.6746 76.6187 66.8166 76.6805C66.9593 76.7417 67.0908 76.8022 67.2792 76.8022C67.6203 76.8022 67.8544 76.5772 67.9936 76.3684C68.1328 76.1595 68.213 75.9535 68.213 75.7173C68.213 75.422 68.0295 75.2124 67.8263 75.0563C67.6231 74.9002 67.3671 74.7737 67.0718 74.6654C66.4812 74.4488 65.7274 74.3082 64.9709 74.3082ZM34.1339 74.439C33.5637 74.439 33.0708 74.7969 33.0708 75.3291V81.0898C33.0708 83.427 35.0578 85.497 37.5216 85.497C39.9445 85.497 41.9724 83.4509 41.9724 81.0898V75.3081C41.9724 75.0423 41.8261 74.8109 41.6335 74.664C41.4408 74.5177 41.1961 74.439 40.9303 74.439C40.6646 74.439 40.4185 74.5163 40.2216 74.6605C40.0247 74.8039 39.8672 75.0331 39.8672 75.3081V81.0898C39.8672 82.3147 38.7999 83.5002 37.5216 83.5002C36.2229 83.5002 35.1767 82.2936 35.1767 81.0898V75.3291C35.1767 75.0528 35.0255 74.8405 34.8392 74.6893C34.6528 74.5381 34.4067 74.439 34.1339 74.439ZM58.5331 74.439C58.2659 74.439 58.0198 74.5079 57.8229 74.6563C57.626 74.8039 57.4924 75.0486 57.4924 75.3081V85.9224C57.4924 86.7191 57.4362 87.387 57.2611 87.792C57.0867 88.1963 56.88 88.3756 56.2908 88.3756C55.7698 88.3756 55.3346 88.8305 55.3346 89.3755C55.3346 89.6012 55.4077 89.8501 55.5926 90.0434C55.7775 90.2368 56.0651 90.3514 56.3977 90.3514C57.5185 90.3514 58.3763 89.8543 58.8867 89.0471C59.3986 88.2392 59.5969 87.1592 59.5969 85.9224V75.3081C59.5969 75.0317 59.4394 74.7913 59.2383 74.6492C59.0308 74.5076 58.7843 74.4341 58.5331 74.439ZM47.9433 76.1778C49.3432 76.1778 50.2889 77.3499 50.2889 78.5438C50.2889 78.6739 50.2749 78.759 50.2608 78.7977C50.2481 78.8363 50.2496 78.8314 50.2299 78.8448C50.1912 78.8701 49.9746 78.9256 49.5612 78.9256H45.5977V78.4573C45.5977 77.2079 46.6418 76.1778 47.9433 76.1778ZM54.6314 82.7661C53.8664 82.7661 53.2871 83.3989 53.2871 84.1316C53.2871 84.8347 53.858 85.4759 54.6314 85.4759C55.3641 85.4759 55.9533 84.8544 55.9533 84.1316C55.9533 83.3813 55.3542 82.7661 54.6314 82.7661Z" fill="white"/>
<path d="M22.0809 0.276855L35.9529 0.281074L45.0204 15.3329L54.0562 0.283184L67.9162 0.279668L45.09 39.874L22.0809 0.276855Z" fill="#35495E"/>
<path d="M6.95178 0.382441L22.069 0.279785L45.0766 39.8763L67.9043 0.281895L83.0475 0.298066L45.0738 65.4665L6.95178 0.382441Z" fill="#41B883"/>
</g>
<defs>
<clipPath id="clip0_8_1105">
<rect width="90" height="90" fill="white"/>
</clipPath>
</defs>
</svg>
