<svg width="62" height="62" viewBox="0 0 62 62" fill="none" xmlns="http://www.w3.org/2000/svg">
<path d="M49.2125 12.6841C46.8438 10.2923 44.0226 8.39572 40.9136 7.10508C37.8045 5.81444 34.4696 5.15549 31.1033 5.16664C16.9983 5.16664 5.5025 16.6625 5.5025 30.7675C5.5025 35.2883 6.69083 39.68 8.9125 43.555L5.29583 56.8333L18.8583 53.2683C22.6042 55.3091 26.815 56.3941 31.1033 56.3941C45.2083 56.3941 56.7042 44.8983 56.7042 30.7933C56.7042 23.9475 54.0433 17.515 49.2125 12.6841ZM31.1033 52.0541C27.28 52.0541 23.5342 51.0208 20.2533 49.0833L19.4783 48.6183L11.4183 50.7366L13.5625 42.8833L13.0458 42.0825C10.9212 38.6907 9.79322 34.7698 9.79083 30.7675C9.79083 19.0391 19.3492 9.48081 31.0775 9.48081C36.7608 9.48081 42.1083 11.7025 46.1125 15.7325C48.0955 17.7058 49.667 20.0532 50.7357 22.6386C51.8044 25.2239 52.3492 27.9958 52.3383 30.7933C52.39 42.5216 42.8317 52.0541 31.1033 52.0541ZM42.78 36.1408C42.1342 35.8308 38.9825 34.2808 38.4142 34.0483C37.82 33.8416 37.4067 33.7383 36.9675 34.3583C36.5283 35.0041 35.3142 36.4508 34.9525 36.8641C34.5908 37.3033 34.2033 37.355 33.5575 37.0191C32.9117 36.7091 30.845 36.0116 28.4167 33.8416C26.505 32.1366 25.2392 30.0441 24.8517 29.3983C24.49 28.7525 24.8 28.4166 25.1358 28.0808C25.42 27.7966 25.7817 27.3316 26.0917 26.97C26.4017 26.6083 26.5308 26.3241 26.7375 25.9108C26.9442 25.4716 26.8408 25.11 26.6858 24.8C26.5308 24.49 25.2392 21.3383 24.7225 20.0466C24.2058 18.8066 23.6633 18.9616 23.2758 18.9358H22.0358C21.5967 18.9358 20.925 19.0908 20.3308 19.7366C19.7625 20.3825 18.1092 21.9325 18.1092 25.0841C18.1092 28.2358 20.4083 31.2841 20.7183 31.6975C21.0283 32.1366 25.2392 38.595 31.6458 41.3591C33.17 42.0308 34.3583 42.4183 35.2883 42.7025C36.8125 43.1933 38.2075 43.1158 39.3183 42.9608C40.5583 42.78 43.1158 41.4108 43.6325 39.9125C44.175 38.4141 44.175 37.1483 43.9942 36.8641C43.8133 36.58 43.4258 36.4508 42.78 36.1408Z" fill="white"/>
</svg>
